<?xml version="1.0" encoding="utf-8"?>
<!-- Generator: Adobe Illustrator 21.1.0, SVG Export Plug-In . SVG Version: 6.00 Build 0)  -->
<svg version="1.1" id="Layer_1" xmlns="http://www.w3.org/2000/svg" xmlns:xlink="http://www.w3.org/1999/xlink" x="0px" y="0px"
	 width="640px" height="216px" viewBox="0 0 640 216" style="enable-background:new 0 0 640 216;" xml:space="preserve">
<style type="text/css">
	.st0{fill:#22233A;}
	.st1{opacity:0.93;}
	.st2{fill:#EFAF00;}
	.st3{fill:#7C5B00;}
	.st4{opacity:0.15;enable-background:new    ;}
	.st5{fill:#69C61D;}
	.st6{fill:#37670F;}
	.st7{fill:#00B8DB;}
	.st8{fill:url(#SVGID_1_);}
	.st9{fill:#006072;}
</style>
<g id="BLACK-H_1_">
	<g>
		<path class="st0" d="M252,139l-8,19.7h-23.2L265,55.6h20.6l44,103.1h-23l-8-19.7H252z M275,81.8l-15,37.6h30.3L275,81.8z"/>
		<path class="st0" d="M375.4,76.1v82.6h-21.9V76.1h-34.3V56.2h90.3v19.9L375.4,76.1L375.4,76.1z"/>
		<path class="st0" d="M513.4,112.1c0,30.6-18.3,48.8-46.4,48.8c-27.9,0-46.1-18.2-46.1-48.8V56.2h21.7v56c0,17,9.8,28.4,24.5,28.4
			c14.9,0,24.7-11.3,24.7-28.4v-56h21.7V112.1z"/>
		<path class="st0" d="M640,158.7h-21.9v-55.7l-25.6,40.2h-12.8v-0.1l-25.8-40.5l0.2,56h-22V56.2h15.7l38.3,60.3l38.3-60.3h15.5
			v102.5H640z"/>
	</g>
	<g>
		<g>
			<g class="st1">
				<g>
					<g>
						<path class="st2" d="M92.1,75.3c3.2,0,6.5,0.9,8.9,2.6l79.1,56c4.9,3.5,4.9,9.2,0,12.6l-79.1,56c-2.4,1.7-5.7,2.6-8.9,2.6
							c-3.2,0-6.5-0.9-8.9-2.6L4,146.5c-4.9-3.5-4.9-9.2,0-12.6l79.1-56C85.6,76.1,88.8,75.3,92.1,75.3z"/>
					</g>
				</g>
				<path class="st3" d="M183.9,140.5c0,0.4,0,0.6-0.1,1c0,0.1,0,0.2-0.1,0.4c0,0.1,0,0.2-0.1,0.2c0,0.1-0.1,0.4-0.1,0.5
					s-0.1,0.2-0.1,0.2c0,0.1-0.1,0.2-0.2,0.4c-0.1,0.2-0.2,0.4-0.4,0.6c-0.1,0.1-0.1,0.2-0.2,0.4c-0.1,0.1-0.2,0.4-0.4,0.5
					c-0.1,0.1-0.1,0.2-0.2,0.4c-0.1,0.2-0.4,0.4-0.5,0.5c-0.1,0.1-0.1,0.1-0.2,0.2c-0.2,0.2-0.6,0.5-1,0.7l-79,56
					c-0.5,0.4-1,0.6-1.6,0.9c-0.1,0-0.2,0.1-0.2,0.1c-0.2,0.1-0.6,0.2-0.9,0.4c-0.1,0-0.2,0.1-0.4,0.1c-0.4,0.1-0.9,0.2-1.2,0.4
					h-0.1c-0.5,0.1-1.1,0.2-1.7,0.4c-0.1,0-0.2,0-0.4,0c-0.5,0.1-1,0.1-1.6,0.1c-0.4,0-0.7,0-1.1,0c-0.4,0-0.6,0-1,0
					c-0.5,0-1.1-0.1-1.6-0.1c-0.1,0-0.1,0-0.2,0c-0.6-0.1-1.2-0.2-1.8-0.4h-0.1c-0.2-0.1-0.5-0.1-0.6-0.2c-0.1,0-0.4-0.1-0.5-0.1
					c-0.2-0.1-0.5-0.1-0.6-0.2c-0.1-0.1-0.2-0.1-0.5-0.2c-0.2-0.1-0.5-0.2-0.7-0.4c-0.1-0.1-0.2-0.1-0.4-0.1c-0.4-0.2-0.6-0.4-1-0.6
					l-79.1-56c-2.4-1.7-3.7-4-3.7-6.4v8.6c0,2.3,1.2,4.5,3.7,6.4l79.1,56c0.4,0.2,0.6,0.4,1,0.6c0.1,0.1,0.2,0.1,0.4,0.2
					c0.2,0.1,0.5,0.2,0.6,0.4c0.1,0.1,0.2,0.1,0.5,0.1c0.2,0.1,0.4,0.2,0.6,0.2c0.1,0,0.4,0.1,0.5,0.1c0.2,0.1,0.4,0.1,0.6,0.2l0,0
					h0.1c0.6,0.1,1.2,0.2,1.8,0.4h0.1c0,0,0,0,0.1,0c0.5,0.1,1.1,0.1,1.6,0.1h0.1c0.2,0,0.5,0,0.7,0c0.4,0,0.6,0,1,0c0,0,0,0,0.1,0
					c0.5,0,1.1-0.1,1.6-0.1h0.1c0.1,0,0.1,0,0.2,0c0.6-0.1,1.1-0.2,1.7-0.4c0,0,0,0,0.1,0l0,0c0.4-0.1,0.9-0.2,1.2-0.4
					c0.1,0,0.2-0.1,0.4-0.1c0.2-0.1,0.6-0.2,0.9-0.4h0.1l0.1-0.1c0.5-0.2,1.1-0.6,1.6-0.9l79.1-56c0.4-0.2,0.6-0.5,1-0.7
					c0.1-0.1,0.1-0.1,0.2-0.2c0.2-0.1,0.4-0.4,0.5-0.5l0.1-0.1c0-0.1,0.1-0.1,0.1-0.2c0.1-0.1,0.2-0.4,0.4-0.5
					c0.1-0.1,0.1-0.2,0.2-0.4c0.1-0.2,0.2-0.4,0.4-0.6c0-0.1,0.1-0.1,0.1-0.2c0,0,0-0.1,0.1-0.1c0-0.1,0.1-0.2,0.1-0.2
					c0.1-0.1,0.1-0.4,0.1-0.5c0-0.1,0-0.2,0.1-0.2v-0.1v-0.1c0.1-0.4,0.1-0.6,0.1-1v-0.1v-0.1v-8.6
					C183.9,140.2,183.9,140.4,183.9,140.5z"/>
			</g>
			<path class="st4" d="M169.5,126.4L144,144.5L100.9,175c-0.5,0.4-1,0.6-1.6,1c0,0-0.1,0-0.1,0.1h-0.1c-0.2,0.1-0.6,0.2-0.9,0.4
				c-0.1,0-0.2,0.1-0.4,0.1c-0.4,0.1-0.9,0.2-1.2,0.4l0,0c0,0,0,0-0.1,0c-0.5,0.1-1.1,0.2-1.6,0.4c-0.1,0-0.1,0-0.2,0h-0.1
				c-0.5,0.1-1,0.1-1.6,0.1h-0.1c-0.4,0-0.6,0-1,0c-0.2,0-0.5,0-0.7,0H91c-0.5,0-1.1-0.1-1.6-0.1l0,0h-0.1c-0.6-0.1-1.2-0.2-1.8-0.4
				c0,0,0,0-0.1,0l0,0c-0.2,0-0.5-0.1-0.6-0.2c-0.1,0-0.4-0.1-0.5-0.1c-0.2-0.1-0.5-0.1-0.6-0.2c-0.1-0.1-0.2-0.1-0.5-0.2
				c-0.2-0.1-0.5-0.2-0.7-0.4c-0.1,0-0.2-0.1-0.4-0.1c-0.4-0.2-0.6-0.4-1-0.6L40,144.5l-25.6-18.1l-8.3,6l25.8,17.9l49.7,34.5
				c0.4,0.2,0.7,0.5,1.1,0.7c0.1,0.1,0.2,0.1,0.4,0.2c0.2,0.1,0.5,0.2,0.9,0.4c0.1,0.1,0.4,0.1,0.5,0.2c0.2,0.1,0.5,0.2,0.7,0.4
				c0.1,0,0.4,0.1,0.6,0.1c0.2,0.1,0.5,0.1,0.7,0.2l0,0h0.1c0.7,0.2,1.5,0.4,2.2,0.5h0.1c0,0,0,0,0.1,0c0.6,0.1,1.2,0.1,1.8,0.1H91
				c0.2,0,0.6,0,0.9,0c0.4,0,0.7,0,1.1,0h0.1c0.6,0,1.2-0.1,1.8-0.1H95c0.1,0,0.1,0,0.2,0c0.6-0.1,1.3-0.2,2-0.4h0.1l0,0
				c0.5-0.1,1-0.2,1.5-0.5c0.1,0,0.2-0.1,0.4-0.1c0.4-0.1,0.7-0.2,1-0.5h0.1l0.1-0.1c0.6-0.4,1.2-0.6,1.8-1.1l49.7-34.5l25.8-17.9
				L169.5,126.4z"/>
		</g>
		<g>
			<g class="st1">
				<g>
					<g>
						<path class="st5" d="M92.1,39.2c3.2,0,6.5,0.9,8.9,2.6l79.1,56c4.9,3.5,4.9,9.2,0,12.6l-79.1,56c-2.4,1.7-5.7,2.6-8.9,2.6
							c-3.2,0-6.5-0.9-8.9-2.6L4,110.4c-4.9-3.5-4.9-9.2,0-12.6l79.1-56C85.6,40.1,88.8,39.2,92.1,39.2z"/>
					</g>
				</g>
				<path class="st6" d="M183.9,104.4c0,0.4,0,0.6-0.1,1c0,0.1,0,0.2-0.1,0.4c0,0.1,0,0.2-0.1,0.2c0,0.1-0.1,0.4-0.1,0.5
					c0,0.1-0.1,0.2-0.1,0.2c0,0.1-0.1,0.2-0.2,0.4c-0.1,0.2-0.2,0.4-0.4,0.6c-0.1,0.1-0.1,0.2-0.2,0.4s-0.2,0.4-0.4,0.5
					c-0.1,0.1-0.1,0.2-0.2,0.4c-0.1,0.2-0.4,0.4-0.5,0.5c-0.1,0.1-0.1,0.1-0.2,0.2c-0.2,0.2-0.6,0.5-1,0.7l-79.1,56
					c-0.5,0.4-1,0.6-1.6,1c-0.1,0-0.2,0.1-0.2,0.1c-0.2,0.1-0.6,0.2-0.9,0.4c-0.1,0-0.2,0.1-0.4,0.1c-0.4,0.1-0.9,0.2-1.2,0.4h-0.1
					c-0.5,0.1-1.1,0.2-1.6,0.4c-0.1,0-0.2,0-0.4,0c-0.5,0.1-1,0.1-1.6,0.1c-0.4,0-0.7,0-1.1,0c-0.4,0-0.6,0-1,0
					c-0.5,0-1.1-0.1-1.6-0.1c-0.1,0-0.1,0-0.2,0c-0.6-0.1-1.2-0.2-1.8-0.4h-0.1c-0.2-0.1-0.5-0.1-0.6-0.2c-0.1,0-0.4-0.1-0.5-0.1
					c-0.2-0.1-0.5-0.1-0.6-0.2s-0.2-0.1-0.5-0.1c-0.2-0.1-0.5-0.2-0.7-0.4c-0.1,0-0.2-0.1-0.4-0.1c-0.4-0.2-0.6-0.4-1-0.6l-79.1-56
					c-2.4-1.7-3.7-4-3.7-6.4v8.6c0,2.3,1.2,4.5,3.7,6.4l79.1,56c0.4,0.2,0.6,0.4,1,0.6c0.1,0.1,0.2,0.1,0.4,0.2
					c0.2,0.1,0.5,0.2,0.6,0.4c0.1,0.1,0.2,0.1,0.5,0.2c0.2,0.1,0.4,0.1,0.6,0.2c0.1,0,0.4,0.1,0.5,0.1c0.2,0.1,0.4,0.1,0.6,0.2l0,0
					h0.1c0.6,0.1,1.2,0.2,1.8,0.4h0.1c0,0,0,0,0.1,0c0.5,0.1,1.1,0.1,1.6,0.1h0.1c0.2,0,0.5,0,0.7,0c0.4,0,0.6,0,1,0c0,0,0,0,0.1,0
					c0.5,0,1.1-0.1,1.6-0.1h0.1c0.1,0,0.1,0,0.2,0c0.6-0.1,1.1-0.2,1.6-0.4c0,0,0,0,0.1,0l0,0c0.4-0.1,0.9-0.2,1.2-0.4
					c0.1,0,0.2-0.1,0.4-0.1c0.2-0.1,0.6-0.2,0.9-0.4H99l0.1-0.1c0.5-0.2,1.1-0.6,1.6-1l79.1-56c0.4-0.2,0.6-0.5,1-0.7
					c0.1-0.1,0.1-0.1,0.2-0.2c0.2-0.1,0.4-0.4,0.5-0.5l0.1-0.1c0-0.1,0.1-0.1,0.1-0.2c0.1-0.1,0.2-0.4,0.4-0.5
					c0.1-0.1,0.1-0.2,0.2-0.4c0.1-0.2,0.2-0.4,0.4-0.6c0-0.1,0.1-0.1,0.1-0.2c0,0,0-0.1,0.1-0.1c0-0.1,0.1-0.2,0.1-0.2
					c0.1-0.1,0.1-0.4,0.1-0.5c0-0.1,0-0.2,0.1-0.2v-0.1v-0.1c0.1-0.4,0.1-0.6,0.1-1v-0.1v-0.1v-8.6
					C183.9,104.2,183.9,104.3,183.9,104.4z"/>
			</g>
			<path class="st4" d="M169.5,90.2l-25.4,18.1L101,138.8c-0.5,0.4-1,0.6-1.6,1c0,0-0.1,0-0.1,0.1h-0.1c-0.2,0.1-0.6,0.2-0.9,0.4
				c-0.1,0-0.2,0.1-0.4,0.1c-0.4,0.1-0.9,0.2-1.2,0.4l0,0c0,0,0,0-0.1,0c-0.5,0.1-1.1,0.2-1.6,0.4c-0.1,0-0.1,0-0.2,0h-0.1
				c-0.5,0.1-1,0.1-1.6,0.1H93c-0.4,0-0.6,0-1,0c-0.2,0-0.5,0-0.7,0h-0.1c-0.5,0-1.1-0.1-1.6-0.1l0,0h-0.1c-0.6-0.1-1.2-0.2-1.8-0.4
				c0,0,0,0-0.1,0l0,0c-0.2,0-0.5-0.1-0.6-0.2c-0.1,0-0.4-0.1-0.5-0.1c-0.2-0.1-0.5-0.1-0.6-0.2s-0.2-0.1-0.5-0.2
				c-0.2-0.1-0.5-0.2-0.7-0.4c-0.1,0-0.2-0.1-0.4-0.1c-0.4-0.2-0.6-0.4-1-0.6l-43.1-30.5L14.6,90.2l-8.3,6L32,114.1l49.7,34.5
				c0.4,0.2,0.7,0.5,1.1,0.7c0.1,0.1,0.2,0.1,0.4,0.2c0.2,0.1,0.5,0.2,0.9,0.4c0.1,0.1,0.4,0.1,0.5,0.2c0.2,0.1,0.5,0.2,0.7,0.4
				c0.1,0,0.4,0.1,0.6,0.1c0.2,0.1,0.5,0.1,0.7,0.2l0,0h0.1c0.7,0.2,1.5,0.4,2.2,0.5h0.1c0,0,0,0,0.1,0c0.6,0.1,1.2,0.1,1.8,0.1h0.1
				c0.2,0,0.6,0,0.9,0c0.4,0,0.7,0,1.1,0h0.1c0.6,0,1.2-0.1,1.8-0.1h0.1c0.1,0,0.1,0,0.2,0c0.6-0.1,1.3-0.2,2-0.4h0.1l0,0
				c0.5-0.1,1-0.2,1.5-0.5c0.1,0,0.2-0.1,0.4-0.1c0.4-0.1,0.7-0.2,1-0.5h0.1l0.1-0.1c0.6-0.4,1.2-0.6,1.8-1.1l49.7-34.5l25.8-17.9
				L169.5,90.2z"/>
		</g>
		<g class="st1">
			<g>
				<g>
					<path class="st7" d="M92.1,3c3.2,0,6.5,0.9,8.9,2.6l79.1,56c4.9,3.5,4.9,9.2,0,12.6l-79.1,56c-2.4,1.7-5.7,2.6-8.9,2.6
						c-3.2,0-6.5-0.9-8.9-2.6L4,74.2c-4.9-3.4-4.9-9.2,0-12.6l79.1-56C85.6,3.9,88.8,3,92.1,3z"/>
				</g>
			</g>
			<g>
				<g>
					
						<linearGradient id="SVGID_1_" gradientUnits="userSpaceOnUse" x1="92.11" y1="367.6819" x2="92.11" y2="494.5321" gradientTransform="matrix(1 0 0 -1 0 499)">
						<stop  offset="0" style="stop-color:#00B8DB"/>
						<stop  offset="0.9904" style="stop-color:#99E3F1"/>
					</linearGradient>
					<path class="st8" d="M92.1,4.5c3.2,0,6.4,0.9,8.8,2.6l77.4,54.7c4.9,3.4,4.9,8.9,0,12.4l-77.4,54.7c-2.4,1.7-5.6,2.6-8.8,2.6
						s-6.4-0.9-8.7-2.6L5.9,74.1C1,70.6,1,65.1,5.9,61.7L83.3,7C85.7,5.3,88.9,4.5,92.1,4.5z"/>
				</g>
			</g>
			<path class="st9" d="M183.9,68.3c0,0.4,0,0.6-0.1,1c0,0.1,0,0.2-0.1,0.4c0,0.1,0,0.2-0.1,0.2c0,0.1-0.1,0.4-0.1,0.5
				c0,0.1-0.1,0.2-0.1,0.2c0,0.1-0.1,0.2-0.2,0.4c-0.1,0.2-0.2,0.4-0.4,0.6c-0.1,0.1-0.1,0.2-0.2,0.4s-0.2,0.4-0.4,0.5
				c-0.1,0.1-0.1,0.2-0.2,0.4c-0.1,0.2-0.4,0.4-0.5,0.5c-0.1,0.1-0.1,0.1-0.2,0.2c-0.2,0.2-0.6,0.5-1,0.7l-79.1,56
				c-0.5,0.4-1,0.6-1.6,1c-0.1,0-0.2,0.1-0.2,0.1c-0.2,0.1-0.6,0.2-0.9,0.4c-0.1,0-0.2,0.1-0.4,0.1c-0.4,0.1-0.9,0.2-1.2,0.4h-0.1
				c-0.5,0.1-1.1,0.2-1.6,0.4c-0.1,0-0.2,0-0.4,0c-0.5,0.1-1,0.1-1.6,0.1c-0.4,0-0.7,0-1.1,0c-0.4,0-0.6,0-1,0
				c-0.5,0-1.1-0.1-1.6-0.1c-0.1,0-0.1,0-0.2,0c-0.6-0.1-1.2-0.2-1.8-0.4h-0.1c-0.2-0.1-0.5-0.1-0.6-0.2c-0.1,0-0.4-0.1-0.5-0.1
				c-0.2-0.1-0.5-0.1-0.6-0.2s-0.2-0.1-0.5-0.2c-0.2-0.1-0.5-0.2-0.7-0.4c-0.1-0.1-0.2-0.1-0.4-0.1c-0.4-0.2-0.6-0.4-1-0.6l-79.1-56
				C1.2,72.6,0,70.3,0,68v8.6c0,2.3,1.2,4.5,3.7,6.4l79.1,56c0.4,0.2,0.6,0.4,1,0.6c0.1,0.1,0.2,0.1,0.4,0.1
				c0.2,0.1,0.5,0.2,0.7,0.4c0.1,0.1,0.2,0.1,0.5,0.2c0.2,0.1,0.4,0.2,0.6,0.2c0.1,0,0.4,0.1,0.5,0.1c0.2,0.1,0.4,0.1,0.6,0.2l0,0
				h0.1c0.6,0.1,1.2,0.2,1.8,0.4h0.1c0,0,0,0,0.1,0c0.5,0.1,1.1,0.1,1.6,0.1H91c0.2,0,0.5,0,0.7,0c0.4,0,0.6,0,1,0c0,0,0,0,0.1,0
				c0.5,0,1.1-0.1,1.6-0.1h0.1c0.1,0,0.1,0,0.2,0c0.6-0.1,1.1-0.2,1.6-0.4h0.1l0,0c0.4-0.1,0.9-0.2,1.2-0.4c0.1,0,0.2-0.1,0.4-0.1
				c0.2-0.1,0.6-0.2,0.9-0.4h0.1l0.1-0.1c0.5-0.2,1.1-0.6,1.6-1l79.1-56c0.4-0.2,0.6-0.5,1-0.7c0.1-0.1,0.1-0.1,0.2-0.2
				c0.2-0.1,0.4-0.4,0.5-0.5l0.1-0.1c0-0.1,0.1-0.1,0.1-0.2c0.1-0.1,0.2-0.4,0.4-0.5c0.1-0.1,0.1-0.2,0.2-0.4
				c0.1-0.2,0.2-0.4,0.4-0.6c0-0.1,0.1-0.1,0.1-0.2c0,0,0-0.1,0.1-0.1c0-0.1,0.1-0.2,0.1-0.2c0.1-0.1,0.1-0.4,0.1-0.5
				c0-0.1,0-0.2,0.1-0.2v-0.1V78c0.1-0.4,0.1-0.6,0.1-1v-0.1v-0.1v-8.6C183.9,68.1,183.9,68.2,183.9,68.3z"/>
		</g>
	</g>
</g>
</svg>
