<svg version="1.1" id="Capa_1" xmlns="http://www.w3.org/2000/svg" xmlns:xlink="http://www.w3.org/1999/xlink" x="0px" y="0px"
	 width="60px" height="50px" viewBox="0 0 60 50" style="enable-background:new 0 0 60 50;" xml:space="preserve">
<style type="text/css">
	.st0{fill:#AFAFAF;}
</style>
<rect x="22.5" y="12.7" class="st0" width="32.7" height="9"/>
<rect x="4.8" y="12.7" class="st0" width="15.1" height="9"/>
<rect x="22.5" y="36.4" class="st0" width="32.7" height="9"/>
<rect x="4.8" y="36.4" class="st0" width="15.1" height="9"/>
<rect x="22.5" y="24.6" class="st0" width="32.7" height="9"/>
<rect x="4.8" y="24.6" class="st0" width="15.1" height="9"/>
<g>
	<rect y="7.5" class="st0" width="60" height="1"/>
</g>
<circle class="st0" cx="47.8" cy="4" r="1"/>
<circle class="st0" cx="51" cy="4" r="1"/>
<circle class="st0" cx="54.2" cy="4" r="1"/>
<path class="st0" d="M55.5,1C57.4,1,59,2.6,59,4.5v41c0,1.9-1.6,3.5-3.5,3.5h-51C2.6,49,1,47.4,1,45.5v-41C1,2.6,2.6,1,4.5,1H55.5
	 M55.5,0h-51C2,0,0,2,0,4.5v41C0,48,2,50,4.5,50h51c2.5,0,4.5-2,4.5-4.5v-41C60,2,58,0,55.5,0L55.5,0z"/>
<rect x="4.8" y="3" class="st0" width="12.2" height="2"/>
</svg>
