<?xml version="1.0" encoding="UTF-8"?>
<svg width="376px" height="86px" viewBox="0 0 376 86" version="1.1" xmlns="http://www.w3.org/2000/svg" xmlns:xlink="http://www.w3.org/1999/xlink">
    <title>Group 12</title>
    <defs>
        <linearGradient x1="50%" y1="100%" x2="50%" y2="-1.17460015e-14%" id="linearGradient-1">
            <stop stop-color="#00B8DB" offset="0%"></stop>
            <stop stop-color="#99E3F1" offset="99.04%"></stop>
        </linearGradient>
    </defs>
    <g id="-----01.7-ATUM-FREE_ADD-ONS" stroke="none" stroke-width="1" fill="none" fill-rule="evenodd">
        <g id="Group-12" transform="translate(0.335714, 0.000000)" fill-rule="nonzero">
            <path d="M297.658286,38 L297.658286,31.574 L302.887286,31.574 C303.559286,31.574 304.168286,31.4795 304.714286,31.2905 C305.260286,31.1015 305.729286,30.8215 306.121286,30.4505 C306.513286,30.0795 306.814286,29.628 307.024286,29.096 C307.234286,28.564 307.339286,27.962 307.339286,27.29 C307.339286,26.618 307.234286,26.016 307.024286,25.484 C306.814286,24.952 306.513286,24.5005 306.121286,24.1295 C305.729286,23.7585 305.260286,23.4785 304.714286,23.2895 C304.168286,23.1005 303.559286,23.006 302.887286,23.006 L296.230286,23.006 L296.230286,38 L297.658286,38 Z M302.572286,30.356 L297.658286,30.356 L297.658286,24.224 L302.572286,24.224 C303.566286,24.224 304.371286,24.476 304.987286,24.98 C305.603286,25.484 305.911286,26.254 305.911286,27.29 C305.911286,28.326 305.603286,29.096 304.987286,29.6 C304.371286,30.104 303.566286,30.356 302.572286,30.356 Z M310.531286,38 L310.531286,32.225 C310.531286,31.651 310.629286,31.1225 310.825286,30.6395 C311.021286,30.1565 311.297786,29.74 311.654786,29.39 C312.011786,29.04 312.435286,28.7705 312.925286,28.5815 C313.415286,28.3925 313.961286,28.312 314.563286,28.34 L314.563286,27.017 C313.583286,26.975 312.739786,27.192 312.032786,27.668 C311.325786,28.144 310.804286,28.823 310.468286,29.705 L310.426286,29.705 L310.426286,27.164 L309.208286,27.164 L309.208286,38 L310.531286,38 Z M320.170286,38.294 C321.542286,38.294 322.602786,37.958 323.351786,37.286 C324.100786,36.614 324.615286,35.662 324.895286,34.43 L323.572286,34.43 C323.362286,35.27 322.984286,35.942 322.438286,36.446 C321.892286,36.95 321.136286,37.202 320.170286,37.202 C319.540286,37.202 319.001286,37.069 318.553286,36.803 C318.105286,36.537 317.734286,36.201 317.440286,35.795 C317.146286,35.389 316.932786,34.9305 316.799786,34.4195 C316.666786,33.9085 316.600286,33.415 316.600286,32.939 L324.937286,32.939 C324.965286,32.183 324.895286,31.4375 324.727286,30.7025 C324.559286,29.9675 324.282786,29.3165 323.897786,28.7495 C323.512786,28.1825 323.012286,27.724 322.396286,27.374 C321.780286,27.024 321.038286,26.849 320.170286,26.849 C319.316286,26.849 318.577786,27.0135 317.954786,27.3425 C317.331786,27.6715 316.824286,28.1055 316.432286,28.6445 C316.040286,29.1835 315.749786,29.796 315.560786,30.482 C315.371786,31.168 315.277286,31.868 315.277286,32.582 C315.277286,33.352 315.371786,34.0835 315.560786,34.7765 C315.749786,35.4695 316.040286,36.0785 316.432286,36.6035 C316.824286,37.1285 317.331786,37.5415 317.954786,37.8425 C318.577786,38.1435 319.316286,38.294 320.170286,38.294 Z M323.614286,31.826 L316.600286,31.826 C316.656286,31.336 316.771786,30.8565 316.946786,30.3875 C317.121786,29.9185 317.356286,29.5055 317.650286,29.1485 C317.944286,28.7915 318.301286,28.5045 318.721286,28.2875 C319.141286,28.0705 319.624286,27.962 320.170286,27.962 C320.702286,27.962 321.178286,28.0705 321.598286,28.2875 C322.018286,28.5045 322.375286,28.7915 322.669286,29.1485 C322.963286,29.5055 323.190786,29.915 323.351786,30.377 C323.512786,30.839 323.600286,31.322 323.614286,31.826 Z M328.045286,38 L328.045286,31.952 C328.045286,31.378 328.108286,30.8495 328.234286,30.3665 C328.360286,29.8835 328.552786,29.4635 328.811786,29.1065 C329.070786,28.7495 329.406786,28.4695 329.819786,28.2665 C330.232786,28.0635 330.719286,27.962 331.279286,27.962 C331.699286,27.962 332.056286,28.032 332.350286,28.172 C332.644286,28.312 332.878786,28.5045 333.053786,28.7495 C333.228786,28.9945 333.354786,29.2815 333.431786,29.6105 C333.508786,29.9395 333.547286,30.286 333.547286,30.65 L333.547286,38 L334.870286,38 L334.870286,31.868 C334.870286,31.364 334.915786,30.8775 335.006786,30.4085 C335.097786,29.9395 335.255286,29.523 335.479286,29.159 C335.703286,28.795 336.004286,28.5045 336.382286,28.2875 C336.760286,28.0705 337.236286,27.962 337.810286,27.962 C338.762286,27.962 339.427286,28.1965 339.805286,28.6655 C340.183286,29.1345 340.372286,29.817 340.372286,30.713 L340.372286,38 L341.695286,38 L341.695286,30.65 C341.695286,28.116 340.498286,26.849 338.104286,26.849 C337.390286,26.849 336.718286,27.024 336.088286,27.374 C335.458286,27.724 334.982286,28.256 334.660286,28.97 C334.464286,28.256 334.075786,27.724 333.494786,27.374 C332.913786,27.024 332.266286,26.849 331.552286,26.849 C330.670286,26.849 329.945786,27.038 329.378786,27.416 C328.811786,27.794 328.353286,28.319 328.003286,28.991 L327.940286,28.991 L327.940286,27.164 L326.722286,27.164 L326.722286,38 L328.045286,38 Z M345.559286,25.127 L345.559286,23.006 L344.236286,23.006 L344.236286,25.127 L345.559286,25.127 Z M345.559286,38 L345.559286,27.164 L344.236286,27.164 L344.236286,38 L345.559286,38 Z M351.880286,38.294 C352.692286,38.294 353.430786,38.1015 354.095786,37.7165 C354.760786,37.3315 355.268286,36.775 355.618286,36.047 L355.660286,36.047 L355.660286,38 L356.878286,38 L356.878286,27.164 L355.555286,27.164 L355.555286,32.855 C355.555286,33.401 355.492286,33.9365 355.366286,34.4615 C355.240286,34.9865 355.044286,35.452 354.778286,35.858 C354.512286,36.264 354.176286,36.5895 353.770286,36.8345 C353.364286,37.0795 352.874286,37.202 352.300286,37.202 C351.250286,37.202 350.511786,36.95 350.084786,36.446 C349.657786,35.942 349.430286,35.2 349.402286,34.22 L349.402286,27.164 L348.079286,27.164 L348.079286,34.199 C348.079286,34.843 348.149286,35.417 348.289286,35.921 C348.429286,36.425 348.649786,36.852 348.950786,37.202 C349.251786,37.552 349.643786,37.8215 350.126786,38.0105 C350.609786,38.1995 351.194286,38.294 351.880286,38.294 Z M360.700286,38 L360.700286,31.952 C360.700286,31.378 360.763286,30.8495 360.889286,30.3665 C361.015286,29.8835 361.207786,29.4635 361.466786,29.1065 C361.725786,28.7495 362.061786,28.4695 362.474786,28.2665 C362.887786,28.0635 363.374286,27.962 363.934286,27.962 C364.354286,27.962 364.711286,28.032 365.005286,28.172 C365.299286,28.312 365.533786,28.5045 365.708786,28.7495 C365.883786,28.9945 366.009786,29.2815 366.086786,29.6105 C366.163786,29.9395 366.202286,30.286 366.202286,30.65 L366.202286,38 L367.525286,38 L367.525286,31.868 C367.525286,31.364 367.570786,30.8775 367.661786,30.4085 C367.752786,29.9395 367.910286,29.523 368.134286,29.159 C368.358286,28.795 368.659286,28.5045 369.037286,28.2875 C369.415286,28.0705 369.891286,27.962 370.465286,27.962 C371.417286,27.962 372.082286,28.1965 372.460286,28.6655 C372.838286,29.1345 373.027286,29.817 373.027286,30.713 L373.027286,38 L374.350286,38 L374.350286,30.65 C374.350286,28.116 373.153286,26.849 370.759286,26.849 C370.045286,26.849 369.373286,27.024 368.743286,27.374 C368.113286,27.724 367.637286,28.256 367.315286,28.97 C367.119286,28.256 366.730786,27.724 366.149786,27.374 C365.568786,27.024 364.921286,26.849 364.207286,26.849 C363.325286,26.849 362.600786,27.038 362.033786,27.416 C361.466786,27.794 361.008286,28.319 360.658286,28.991 L360.595286,28.991 L360.595286,27.164 L359.377286,27.164 L359.377286,38 L360.700286,38 Z M295.526786,62 L297.332786,57.338 L304.157786,57.338 L305.984786,62 L307.517786,62 L301.637786,47.006 L300.041786,47.006 L294.014786,62 L295.526786,62 Z M303.674786,56.12 L297.773786,56.12 L300.776786,48.434 L303.674786,56.12 Z M313.040786,62.294 C313.432786,62.294 313.828286,62.238 314.227286,62.126 C314.626286,62.014 315.000786,61.8565 315.350786,61.6535 C315.700786,61.4505 316.012286,61.202 316.285286,60.908 C316.558286,60.614 316.764786,60.292 316.904786,59.942 L316.946786,59.942 L316.946786,62 L318.164786,62 L318.164786,47.006 L316.841786,47.006 L316.841786,53.222 L316.799786,53.222 C316.659786,52.83 316.460286,52.487 316.201286,52.193 C315.942286,51.899 315.644786,51.6505 315.308786,51.4475 C314.972786,51.2445 314.612286,51.094 314.227286,50.996 C313.842286,50.898 313.446786,50.849 313.040786,50.849 C312.214786,50.849 311.497286,51.003 310.888286,51.311 C310.279286,51.619 309.771786,52.0355 309.365786,52.5605 C308.959786,53.0855 308.658786,53.6945 308.462786,54.3875 C308.266786,55.0805 308.168786,55.812 308.168786,56.582 C308.168786,57.352 308.266786,58.0835 308.462786,58.7765 C308.658786,59.4695 308.959786,60.0785 309.365786,60.6035 C309.771786,61.1285 310.279286,61.5415 310.888286,61.8425 C311.497286,62.1435 312.214786,62.294 313.040786,62.294 Z M313.040786,61.202 C312.410786,61.202 311.871786,61.0655 311.423786,60.7925 C310.975786,60.5195 310.608286,60.166 310.321286,59.732 C310.034286,59.298 309.824286,58.8045 309.691286,58.2515 C309.558286,57.6985 309.491786,57.142 309.491786,56.582 C309.491786,56.022 309.558286,55.4655 309.691286,54.9125 C309.824286,54.3595 310.034286,53.866 310.321286,53.432 C310.608286,52.998 310.975786,52.6445 311.423786,52.3715 C311.871786,52.0985 312.410786,51.962 313.040786,51.962 C313.740786,51.962 314.332286,52.0985 314.815286,52.3715 C315.298286,52.6445 315.690286,52.998 315.991286,53.432 C316.292286,53.866 316.509286,54.3595 316.642286,54.9125 C316.775286,55.4655 316.841786,56.022 316.841786,56.582 C316.841786,57.142 316.775286,57.6985 316.642286,58.2515 C316.509286,58.8045 316.292286,59.298 315.991286,59.732 C315.690286,60.166 315.298286,60.5195 314.815286,60.7925 C314.332286,61.0655 313.740786,61.202 313.040786,61.202 Z M325.094786,62.294 C325.486786,62.294 325.882286,62.238 326.281286,62.126 C326.680286,62.014 327.054786,61.8565 327.404786,61.6535 C327.754786,61.4505 328.066286,61.202 328.339286,60.908 C328.612286,60.614 328.818786,60.292 328.958786,59.942 L329.000786,59.942 L329.000786,62 L330.218786,62 L330.218786,47.006 L328.895786,47.006 L328.895786,53.222 L328.853786,53.222 C328.713786,52.83 328.514286,52.487 328.255286,52.193 C327.996286,51.899 327.698786,51.6505 327.362786,51.4475 C327.026786,51.2445 326.666286,51.094 326.281286,50.996 C325.896286,50.898 325.500786,50.849 325.094786,50.849 C324.268786,50.849 323.551286,51.003 322.942286,51.311 C322.333286,51.619 321.825786,52.0355 321.419786,52.5605 C321.013786,53.0855 320.712786,53.6945 320.516786,54.3875 C320.320786,55.0805 320.222786,55.812 320.222786,56.582 C320.222786,57.352 320.320786,58.0835 320.516786,58.7765 C320.712786,59.4695 321.013786,60.0785 321.419786,60.6035 C321.825786,61.1285 322.333286,61.5415 322.942286,61.8425 C323.551286,62.1435 324.268786,62.294 325.094786,62.294 Z M325.094786,61.202 C324.464786,61.202 323.925786,61.0655 323.477786,60.7925 C323.029786,60.5195 322.662286,60.166 322.375286,59.732 C322.088286,59.298 321.878286,58.8045 321.745286,58.2515 C321.612286,57.6985 321.545786,57.142 321.545786,56.582 C321.545786,56.022 321.612286,55.4655 321.745286,54.9125 C321.878286,54.3595 322.088286,53.866 322.375286,53.432 C322.662286,52.998 323.029786,52.6445 323.477786,52.3715 C323.925786,52.0985 324.464786,51.962 325.094786,51.962 C325.794786,51.962 326.386286,52.0985 326.869286,52.3715 C327.352286,52.6445 327.744286,52.998 328.045286,53.432 C328.346286,53.866 328.563286,54.3595 328.696286,54.9125 C328.829286,55.4655 328.895786,56.022 328.895786,56.582 C328.895786,57.142 328.829286,57.6985 328.696286,58.2515 C328.563286,58.8045 328.346286,59.298 328.045286,59.732 C327.744286,60.166 327.352286,60.5195 326.869286,60.7925 C326.386286,61.0655 325.794786,61.202 325.094786,61.202 Z M337.988786,56.834 L337.988786,55.616 L332.738786,55.616 L332.738786,56.834 L337.988786,56.834 Z M347.039786,62.294 C348.215786,62.294 349.244786,62.0805 350.126786,61.6535 C351.008786,61.2265 351.743786,60.656 352.331786,59.942 C352.919786,59.228 353.360786,58.402 353.654786,57.464 C353.948786,56.526 354.095786,55.539 354.095786,54.503 C354.095786,53.467 353.948786,52.48 353.654786,51.542 C353.360786,50.604 352.919786,49.7745 352.331786,49.0535 C351.743786,48.3325 351.008786,47.7585 350.126786,47.3315 C349.244786,46.9045 348.215786,46.691 347.039786,46.691 C345.863786,46.691 344.831286,46.9045 343.942286,47.3315 C343.053286,47.7585 342.314786,48.3325 341.726786,49.0535 C341.138786,49.7745 340.697786,50.604 340.403786,51.542 C340.109786,52.48 339.962786,53.467 339.962786,54.503 C339.962786,55.539 340.109786,56.526 340.403786,57.464 C340.697786,58.402 341.138786,59.228 341.726786,59.942 C342.314786,60.656 343.053286,61.2265 343.942286,61.6535 C344.831286,62.0805 345.863786,62.294 347.039786,62.294 Z M347.039786,61.097 C346.045786,61.097 345.191786,60.908 344.477786,60.53 C343.763786,60.152 343.179286,59.6515 342.724286,59.0285 C342.269286,58.4055 341.933286,57.6985 341.716286,56.9075 C341.499286,56.1165 341.390786,55.315 341.390786,54.503 C341.390786,53.677 341.499286,52.872 341.716286,52.088 C341.933286,51.304 342.269286,50.6005 342.724286,49.9775 C343.179286,49.3545 343.763786,48.854 344.477786,48.476 C345.191786,48.098 346.045786,47.909 347.039786,47.909 C348.033786,47.909 348.884286,48.098 349.591286,48.476 C350.298286,48.854 350.879286,49.3545 351.334286,49.9775 C351.789286,50.6005 352.125286,51.304 352.342286,52.088 C352.559286,52.872 352.667786,53.677 352.667786,54.503 C352.667786,55.315 352.559286,56.1165 352.342286,56.9075 C352.125286,57.6985 351.789286,58.4055 351.334286,59.0285 C350.879286,59.6515 350.298286,60.152 349.591286,60.53 C348.884286,60.908 348.033786,61.097 347.039786,61.097 Z M357.371786,62 L357.371786,55.679 C357.385786,55.147 357.473286,54.6535 357.634286,54.1985 C357.795286,53.7435 358.019286,53.3515 358.306286,53.0225 C358.593286,52.6935 358.943286,52.4345 359.356286,52.2455 C359.769286,52.0565 360.241786,51.962 360.773786,51.962 C361.305786,51.962 361.750286,52.046 362.107286,52.214 C362.464286,52.382 362.747786,52.613 362.957786,52.907 C363.167786,53.201 363.314786,53.5475 363.398786,53.9465 C363.482786,54.3455 363.524786,54.776 363.524786,55.238 L363.524786,62 L364.847786,62 L364.847786,55.028 C364.847786,54.384 364.784786,53.803 364.658786,53.285 C364.532786,52.767 364.315786,52.3295 364.007786,51.9725 C363.699786,51.6155 363.290286,51.339 362.779286,51.143 C362.268286,50.947 361.634786,50.849 360.878786,50.849 C360.108786,50.849 359.401786,51.0485 358.757786,51.4475 C358.113786,51.8465 357.665786,52.375 357.413786,53.033 L357.371786,53.033 L357.371786,51.164 L356.048786,51.164 L356.048786,62 L357.371786,62 Z M371.189786,62.294 C371.693786,62.294 372.204786,62.238 372.722786,62.126 C373.240786,62.014 373.706286,61.8285 374.119286,61.5695 C374.532286,61.3105 374.871786,60.9745 375.137786,60.5615 C375.403786,60.1485 375.536786,59.648 375.536786,59.06 C375.536786,58.584 375.445786,58.171 375.263786,57.821 C375.081786,57.471 374.847286,57.177 374.560286,56.939 C374.273286,56.701 373.944286,56.5085 373.573286,56.3615 C373.202286,56.2145 372.827786,56.113 372.449786,56.057 L370.685786,55.658 C370.461786,55.602 370.216786,55.5285 369.950786,55.4375 C369.684786,55.3465 369.439786,55.231 369.215786,55.091 C368.991786,54.951 368.806286,54.7795 368.659286,54.5765 C368.512286,54.3735 368.438786,54.125 368.438786,53.831 C368.438786,53.481 368.515786,53.187 368.669786,52.949 C368.823786,52.711 369.026786,52.5185 369.278786,52.3715 C369.530786,52.2245 369.807286,52.1195 370.108286,52.0565 C370.409286,51.9935 370.706786,51.962 371.000786,51.962 C371.378786,51.962 371.735786,52.0075 372.071786,52.0985 C372.407786,52.1895 372.705286,52.333 372.964286,52.529 C373.223286,52.725 373.429786,52.9735 373.583786,53.2745 C373.737786,53.5755 373.821786,53.929 373.835786,54.335 L375.158786,54.335 C375.130786,53.747 375.011786,53.236 374.801786,52.802 C374.591786,52.368 374.308286,52.004 373.951286,51.71 C373.594286,51.416 373.181286,51.199 372.712286,51.059 C372.243286,50.919 371.735786,50.849 371.189786,50.849 C370.713786,50.849 370.234286,50.905 369.751286,51.017 C369.268286,51.129 368.830786,51.304 368.438786,51.542 C368.046786,51.78 367.728286,52.095 367.483286,52.487 C367.238286,52.879 367.115786,53.348 367.115786,53.894 C367.115786,54.356 367.192786,54.7445 367.346786,55.0595 C367.500786,55.3745 367.714286,55.6405 367.987286,55.8575 C368.260286,56.0745 368.578786,56.2565 368.942786,56.4035 C369.306786,56.5505 369.705786,56.68 370.139786,56.792 L371.840786,57.17 C372.134786,57.24 372.425286,57.324 372.712286,57.422 C372.999286,57.52 373.254786,57.6425 373.478786,57.7895 C373.702786,57.9365 373.881286,58.1185 374.014286,58.3355 C374.147286,58.5525 374.213786,58.822 374.213786,59.144 C374.213786,59.522 374.119286,59.8405 373.930286,60.0995 C373.741286,60.3585 373.499786,60.572 373.205786,60.74 C372.911786,60.908 372.593286,61.027 372.250286,61.097 C371.907286,61.167 371.574786,61.202 371.252786,61.202 C370.370786,61.202 369.632286,60.9745 369.037286,60.5195 C368.442286,60.0645 368.116786,59.389 368.060786,58.493 L366.737786,58.493 C366.849786,59.823 367.301286,60.789 368.092286,61.391 C368.883286,61.993 369.915786,62.294 371.189786,62.294 Z" id="PremiumAdd-Ons" fill="#27283B"></path>
            <g id="atum" transform="translate(-0.000000, 1.186047)">
                <g id="Group">
                    <g transform="translate(0.000000, 28.675059)" id="Shape">
                        <g opacity="0.93">
                            <g fill="#EFAF00">
                                <path d="M36.4809961,0.128013655 C37.761031,0.128013655 39.041066,0.460849157 40.0138925,1.15212289 L71.4003495,23.3496906 C73.3716033,24.7322381 73.3716033,26.9852784 71.4003495,28.3678259 L40.0138925,50.5653936 C39.041066,51.2566674 37.761031,51.5895029 36.4809961,51.5895029 C35.2009611,51.5895029 33.9209262,51.2566674 32.9480996,50.5653936 L1.56164264,28.3678259 C-0.409611184,26.9852784 -0.409611184,24.7322381 1.56164264,23.3496906 L32.9480996,1.15212289 C33.9209262,0.486451888 35.2009611,0.128013655 36.4809961,0.128013655 Z"></path>
                            </g>
                            <path d="M72.8595893,25.9867719 C72.8595893,26.1147856 72.8339886,26.2427992 72.8083879,26.3708129 C72.8083879,26.4220183 72.7827872,26.4476211 72.7827872,26.4988265 C72.7827872,26.5244293 72.7571865,26.5756347 72.7571865,26.6012375 C72.7315858,26.6780457 72.7059851,26.7292511 72.6803844,26.8060593 C72.6547837,26.831662 72.6547837,26.8828675 72.629183,26.9084702 C72.6035824,26.9596757 72.5779817,27.0108812 72.552381,27.0620866 C72.5267803,27.1388948 72.4755789,27.215703 72.4243775,27.2925112 C72.3987768,27.3437167 72.3731761,27.3693194 72.3475754,27.4205249 C72.296374,27.497333 72.2451726,27.5741412 72.1939712,27.6253467 C72.1683705,27.6765522 72.1171691,27.7021549 72.0915684,27.7533604 C72.0147663,27.8301686 71.9635649,27.9069767 71.8867628,27.9581822 C71.8611621,27.9837849 71.8099607,28.0349904 71.78436,28.0605931 C71.6819572,28.1630041 71.5539537,28.265415 71.4259502,28.3422232 L40.0394932,50.5397909 C39.8346876,50.6678046 39.629882,50.7958182 39.4250765,50.8982291 C39.3994758,50.9238319 39.3482744,50.9494346 39.3226737,50.9494346 C39.2202709,51.0006401 39.0922674,51.0518455 38.9898646,51.103051 C38.9386632,51.1286537 38.9130625,51.1286537 38.8618611,51.1542565 C38.7082569,51.2054619 38.5546527,51.2566674 38.3754478,51.3078728 C38.3498471,51.3078728 38.3498471,51.3078728 38.3242464,51.3078728 C38.1194408,51.3590783 37.8890345,51.4102838 37.6586282,51.4614892 C37.6074268,51.4614892 37.5818261,51.487092 37.5306247,51.487092 C37.3258191,51.5126947 37.1210135,51.5382974 36.916208,51.5639001 C36.7626038,51.5639001 36.6346003,51.5895029 36.4809961,51.5895029 C36.3529926,51.5895029 36.2249891,51.5895029 36.1225863,51.5895029 C35.9177807,51.5895029 35.6873744,51.5639001 35.4825688,51.5382974 C35.4569681,51.5382974 35.4313674,51.5382974 35.4057667,51.5126947 C35.1497597,51.4614892 34.9193534,51.4358865 34.6633464,51.3590783 C34.6377457,51.3590783 34.6377457,51.3590783 34.612145,51.3334756 C34.5353429,51.3078728 34.4329401,51.2822701 34.3561381,51.2566674 C34.279336,51.2310646 34.2281346,51.2054619 34.1513325,51.2054619 C34.0745304,51.1798592 33.9721276,51.1286537 33.8953255,51.103051 C33.8441241,51.0774483 33.767322,51.0518455 33.7161206,51.0262428 C33.6137178,50.9750373 33.5369157,50.9238319 33.4345129,50.8982291 C33.3833115,50.8726264 33.3321101,50.8470237 33.3065094,50.821421 C33.1785059,50.7446128 33.0505024,50.6678046 32.9224989,50.5653936 L1.56164264,28.3678259 C0.588816077,27.6765522 0.102402796,26.7804566 0.102402796,25.8587583 L0.102402796,29.2383188 C0.102402796,30.1344143 0.588816077,31.0561127 1.56164264,31.7473864 L32.9480996,53.9449541 C33.0761031,54.0217623 33.2041066,54.1241732 33.3321101,54.2009814 C33.3833115,54.2265842 33.4345129,54.2521869 33.4857143,54.2777896 C33.5625164,54.3289951 33.6649192,54.3802006 33.7417213,54.4058033 C33.7929227,54.431406 33.8697248,54.4570087 33.9209262,54.4826115 C33.9977283,54.5082142 34.1001311,54.5594197 34.1769332,54.5850224 C34.2281346,54.6106251 34.3049367,54.6362279 34.3817388,54.6618306 C34.4585408,54.6874333 34.5609436,54.7130361 34.6377457,54.7386388 C34.6377457,54.7386388 34.6377457,54.7386388 34.6633464,54.7386388 L34.6889471,54.7386388 C34.9193534,54.815447 35.1753604,54.8666524 35.4313674,54.8922552 C35.4569681,54.8922552 35.4569681,54.8922552 35.4825688,54.8922552 L35.5081695,54.8922552 C35.7129751,54.9178579 35.9177807,54.9434606 36.148187,54.9434606 C36.1737877,54.9434606 36.1993884,54.9434606 36.1993884,54.9434606 C36.3017912,54.9434606 36.404194,54.9434606 36.5065968,54.9434606 C36.6346003,54.9434606 36.7626038,54.9434606 36.8906073,54.9434606 L36.916208,54.9434606 C37.1210135,54.9434606 37.3258191,54.9178579 37.5306247,54.8666524 C37.5562254,54.8666524 37.5562254,54.8666524 37.5818261,54.8666524 C37.6074268,54.8666524 37.6330275,54.8666524 37.6586282,54.8410497 C37.8890345,54.815447 38.0938401,54.7642415 38.3242464,54.6874333 L38.3498471,54.6874333 L38.3498471,54.6874333 C38.5034513,54.6362279 38.6826562,54.5850224 38.8362604,54.5338169 C38.8874618,54.5082142 38.9130625,54.5082142 38.9642639,54.4826115 C39.0666667,54.431406 39.1946702,54.3802006 39.297073,54.3289951 C39.3226737,54.3289951 39.3226737,54.3033924 39.3482744,54.3033924 C39.3738751,54.3033924 39.3994758,54.2777896 39.3994758,54.2777896 C39.6042813,54.1753787 39.8090869,54.0473651 40.0138925,53.9193514 L71.4003495,31.7473864 C71.528353,31.6449755 71.6563565,31.5425645 71.7587593,31.4657563 C71.78436,31.4401536 71.8355614,31.3889482 71.8611621,31.3633454 C71.9379642,31.2865372 72.0147663,31.209729 72.0659677,31.1585236 C72.0659677,31.1329208 72.0915684,31.1329208 72.1171691,31.1073181 C72.1427698,31.0817154 72.1683705,31.0561127 72.1683705,31.0305099 C72.2195719,30.9537017 72.2707733,30.8768935 72.3219747,30.8256881 C72.3475754,30.7744826 72.3731761,30.7488799 72.3987768,30.6976744 C72.4499782,30.6208662 72.4755789,30.544058 72.5267803,30.4672498 C72.552381,30.4416471 72.552381,30.4160444 72.5779817,30.3904416 C72.5779817,30.3648389 72.6035824,30.3392362 72.6035824,30.3392362 C72.629183,30.3136335 72.629183,30.262428 72.6547837,30.2368253 C72.6803844,30.1600171 72.7059851,30.1088116 72.7315858,30.0320034 C72.7315858,30.0064007 72.7571865,29.9551952 72.7571865,29.9295925 C72.7571865,29.9039898 72.7827872,29.878387 72.7827872,29.878387 C72.7827872,29.8527843 72.7827872,29.8271816 72.7827872,29.8015788 C72.8083879,29.6735652 72.8339886,29.5455515 72.8339886,29.4175379 C72.8339886,29.3919351 72.8339886,29.3663324 72.8339886,29.3663324 C72.8339886,29.3407297 72.8339886,29.3151269 72.8339886,29.2895242 L72.8339886,25.8587583 C72.88519,25.9099637 72.8595893,25.9611692 72.8595893,25.9867719 Z" fill="#7C5B00"></path>
                        </g>
                        <path d="M67.2018349,20.4053766 L57.0895588,27.5741412 L40.0394932,39.6330275 C39.8346876,39.7610412 39.629882,39.8890548 39.4250765,39.9914658 C39.3994758,39.9914658 39.3994758,40.0170685 39.3738751,40.0170685 C39.3482744,40.0170685 39.3482744,40.0426712 39.3226737,40.0426712 C39.2202709,40.0938767 39.0922674,40.1450821 38.9898646,40.1962876 C38.9386632,40.2218903 38.9130625,40.2218903 38.8618611,40.2474931 C38.7082569,40.2986985 38.5546527,40.349904 38.3754478,40.4011095 C38.3754478,40.4011095 38.3754478,40.4011095 38.3498471,40.4011095 C38.3242464,40.4011095 38.3242464,40.4011095 38.3242464,40.4011095 C38.1194408,40.4523149 37.8890345,40.5035204 37.6842289,40.5291231 C37.6586282,40.5291231 37.6330275,40.5547258 37.6074268,40.5547258 C37.5818261,40.5547258 37.5818261,40.5547258 37.5562254,40.5547258 C37.3514198,40.5803286 37.1466142,40.6059313 36.9418087,40.631534 L36.8650066,40.631534 C36.7370031,40.631534 36.6089996,40.6571368 36.4809961,40.6571368 C36.3785933,40.6571368 36.2761905,40.6571368 36.1737877,40.6571368 C36.148187,40.6571368 36.1225863,40.6571368 36.1225863,40.6571368 C35.9177807,40.6571368 35.6873744,40.631534 35.4825688,40.6059313 L35.4569681,40.6059313 C35.4313674,40.6059313 35.4313674,40.6059313 35.4057667,40.6059313 C35.1497597,40.5803286 34.9193534,40.5035204 34.6633464,40.4523149 L34.6377457,40.4523149 L34.612145,40.4523149 C34.5353429,40.4267122 34.4329401,40.4011095 34.3561381,40.3755067 C34.279336,40.349904 34.2281346,40.349904 34.1513325,40.3243013 C34.0489297,40.2986985 33.9721276,40.2474931 33.8953255,40.2218903 C33.8441241,40.1962876 33.767322,40.1706849 33.7161206,40.1450821 C33.6137178,40.0938767 33.5369157,40.0426712 33.4345129,39.9914658 C33.3833115,39.965863 33.3321101,39.9402603 33.3065094,39.9146576 C33.1785059,39.8378494 33.0505024,39.7610412 32.9224989,39.6586303 L15.8724334,27.5485385 L5.73455657,20.3797738 L2.40646571,22.7352251 L12.6211446,29.8271816 L32.3080821,43.4990399 C32.4616863,43.6014508 32.6152905,43.7038617 32.7688947,43.7806699 C32.8200961,43.8062727 32.8712975,43.8318754 32.9224989,43.8574781 C33.0249017,43.9086836 33.1273045,43.9598891 33.255308,44.0110945 C33.3321101,44.0366972 33.3833115,44.0623 33.4601136,44.0879027 C33.5625164,44.1391082 33.6649192,44.1647109 33.767322,44.2159164 C33.8441241,44.2415191 33.9209262,44.2671218 33.9977283,44.2927246 C34.1001311,44.3183273 34.2025339,44.3695328 34.3049367,44.3951355 L34.3305374,44.3951355 C34.3561381,44.3951355 34.3561381,44.3951355 34.3817388,44.3951355 C34.6633464,44.4719437 34.9449541,44.5231491 35.2265618,44.5743546 C35.2521625,44.5743546 35.2777632,44.5743546 35.2777632,44.5999573 C35.3033639,44.5999573 35.3033639,44.5999573 35.3033639,44.5999573 C35.5593709,44.6255601 35.7897772,44.6511628 36.0457842,44.6767655 C36.0713849,44.6767655 36.0969856,44.6767655 36.1225863,44.6767655 C36.2505898,44.6767655 36.3529926,44.6767655 36.4809961,44.6767655 C36.6346003,44.6767655 36.7882045,44.6767655 36.9418087,44.6511628 C36.9674093,44.6511628 36.9674093,44.6511628 36.99301,44.6511628 C37.2234163,44.6255601 37.4794233,44.6255601 37.7098296,44.5743546 C37.7354303,44.5743546 37.7354303,44.5743546 37.761031,44.5743546 C37.7866317,44.5743546 37.8122324,44.5487519 37.8634338,44.5487519 C38.1194408,44.4975464 38.3754478,44.4463409 38.6314548,44.3695328 C38.6570555,44.3695328 38.6570555,44.3695328 38.6826562,44.3695328 C38.6826562,44.3695328 38.6826562,44.3695328 38.7082569,44.3695328 C38.8874618,44.3183273 39.0922674,44.2671218 39.2714723,44.1903136 C39.3226737,44.1647109 39.3738751,44.1647109 39.4250765,44.1391082 C39.5530799,44.0879027 39.6810834,44.0366972 39.8090869,43.9598891 C39.8346876,43.9598891 39.8602883,43.9342863 39.8602883,43.9342863 C39.885889,43.9086836 39.9114897,43.9086836 39.9370904,43.8830809 C40.1930974,43.7550672 40.4235037,43.6270536 40.65391,43.4734372 L60.3408475,29.8015788 L70.5555264,22.7096224 L67.2018349,20.4053766 Z" fill="#000000" opacity="0.15"></path>
                    </g>
                    <g transform="translate(0.000000, 14.337529)" id="Shape">
                        <g opacity="0.93">
                            <g fill="#69C61D">
                                <path d="M36.4809961,0.153616386 C37.761031,0.153616386 39.041066,0.486451888 40.0138925,1.17772562 L71.4003495,23.3752934 C73.3716033,24.7578408 73.3716033,27.0108812 71.4003495,28.3934286 L40.0138925,50.5909964 C39.041066,51.2822701 37.761031,51.6151056 36.4809961,51.6151056 C35.2009611,51.6151056 33.9209262,51.2822701 32.9480996,50.5909964 L1.56164264,28.3934286 C-0.409611184,27.0108812 -0.409611184,24.7578408 1.56164264,23.3752934 L32.9480996,1.17772562 C33.9209262,0.486451888 35.2009611,0.153616386 36.4809961,0.153616386 Z"></path>
                            </g>
                            <path d="M72.8595893,26.0123747 C72.8595893,26.1403883 72.8339886,26.268402 72.8083879,26.3964156 C72.8083879,26.4476211 72.7827872,26.4732238 72.7827872,26.5244293 C72.7827872,26.550032 72.7571865,26.6012375 72.7571865,26.6268402 C72.7315858,26.7036484 72.7059851,26.7548539 72.6803844,26.831662 C72.6547837,26.8572648 72.6547837,26.9084702 72.629183,26.934073 C72.6035824,26.9852784 72.5779817,27.0364839 72.552381,27.0876894 C72.5267803,27.1644975 72.4755789,27.2413057 72.4243775,27.3181139 C72.3987768,27.3693194 72.3731761,27.3949221 72.3475754,27.4461276 C72.296374,27.5229358 72.2451726,27.599744 72.1939712,27.6509494 C72.1683705,27.7021549 72.1171691,27.7277576 72.0915684,27.7789631 C72.0147663,27.8557713 71.9635649,27.9325795 71.8867628,27.9837849 C71.8611621,28.0093877 71.8099607,28.0605931 71.78436,28.0861959 C71.6819572,28.1886068 71.5539537,28.2910177 71.4259502,28.3678259 L40.0394932,50.5653936 C39.8346876,50.6934073 39.629882,50.821421 39.4250765,50.9238319 C39.3994758,50.9494346 39.3482744,50.9750373 39.3226737,50.9750373 C39.2202709,51.0262428 39.0922674,51.0774483 38.9898646,51.1286537 C38.9386632,51.1542565 38.9130625,51.1542565 38.8618611,51.1798592 C38.7082569,51.2310646 38.5546527,51.2822701 38.3754478,51.3334756 C38.3498471,51.3334756 38.3498471,51.3334756 38.3242464,51.3334756 C38.1194408,51.384681 37.8890345,51.4358865 37.6586282,51.487092 C37.6074268,51.487092 37.5818261,51.5126947 37.5306247,51.5126947 C37.3258191,51.5382974 37.1210135,51.5639001 36.916208,51.5895029 C36.7626038,51.5895029 36.6346003,51.6151056 36.4809961,51.6151056 C36.3529926,51.6151056 36.2249891,51.6151056 36.1225863,51.6151056 C35.9177807,51.6151056 35.6873744,51.5895029 35.4825688,51.5639001 C35.4569681,51.5639001 35.4313674,51.5639001 35.4057667,51.5382974 C35.1497597,51.487092 34.9193534,51.4358865 34.6633464,51.384681 C34.6377457,51.384681 34.6377457,51.384681 34.612145,51.384681 C34.5353429,51.3590783 34.4329401,51.3334756 34.3561381,51.3078728 C34.3049367,51.2822701 34.2281346,51.2566674 34.1513325,51.2566674 C34.0745304,51.2310646 33.9721276,51.1798592 33.8953255,51.1542565 C33.8441241,51.1286537 33.767322,51.103051 33.7161206,51.0774483 C33.6137178,51.0262428 33.5369157,50.9750373 33.4345129,50.9238319 C33.3833115,50.8982291 33.3321101,50.8726264 33.3065094,50.8470237 C33.1785059,50.7702155 33.0505024,50.6934073 32.9224989,50.5909964 L1.56164264,28.3934286 C0.588816077,27.7021549 0.102402796,26.8060593 0.102402796,25.884361 L0.102402796,29.2639215 C0.102402796,30.1600171 0.588816077,31.0817154 1.56164264,31.7729891 L32.9480996,53.9705569 C33.0761031,54.0473651 33.2041066,54.149776 33.3321101,54.2265842 C33.3833115,54.2521869 33.4345129,54.2777896 33.4857143,54.3033924 C33.5625164,54.3545978 33.6649192,54.4058033 33.7417213,54.431406 C33.7929227,54.4570087 33.8697248,54.4826115 33.9209262,54.5082142 C33.9977283,54.5338169 34.1001311,54.5850224 34.1769332,54.6106251 C34.2537353,54.6362279 34.3049367,54.6618306 34.3817388,54.6874333 C34.4585408,54.7130361 34.5609436,54.7386388 34.6377457,54.7642415 C34.6377457,54.7642415 34.6377457,54.7642415 34.6633464,54.7642415 L34.6889471,54.7642415 C34.9193534,54.8410497 35.1753604,54.8922552 35.4313674,54.9178579 C35.4569681,54.9178579 35.4569681,54.9178579 35.4825688,54.9178579 L35.5081695,54.9178579 C35.7129751,54.9434606 35.9177807,54.9690634 36.148187,54.9690634 C36.1737877,54.9690634 36.1993884,54.9690634 36.1993884,54.9690634 C36.3017912,54.9690634 36.404194,54.9690634 36.5065968,54.9690634 C36.6346003,54.9690634 36.7626038,54.9690634 36.8906073,54.9690634 L36.916208,54.9690634 C37.1210135,54.9690634 37.3258191,54.9434606 37.5306247,54.8922552 C37.5562254,54.8922552 37.5562254,54.8922552 37.5818261,54.8922552 C37.6074268,54.8922552 37.6330275,54.8922552 37.6586282,54.8666524 C37.8890345,54.8410497 38.0938401,54.7898443 38.3242464,54.7130361 L38.3498471,54.7130361 L38.3498471,54.7130361 C38.5034513,54.6618306 38.6826562,54.6106251 38.8362604,54.5594197 C38.8874618,54.5338169 38.9130625,54.5338169 38.9642639,54.5082142 C39.0666667,54.4570087 39.1946702,54.4058033 39.297073,54.3545978 C39.3226737,54.3545978 39.3226737,54.3289951 39.3482744,54.3289951 C39.3738751,54.3289951 39.3994758,54.3033924 39.3994758,54.3033924 C39.6042813,54.2009814 39.8090869,54.0729678 40.0138925,53.9449541 L71.4003495,31.7473864 C71.528353,31.6449755 71.6563565,31.5425645 71.7587593,31.4657563 C71.78436,31.4401536 71.8355614,31.3889482 71.8611621,31.3633454 C71.9379642,31.2865372 72.0147663,31.2353318 72.0659677,31.1585236 C72.0659677,31.1329208 72.0915684,31.1329208 72.1171691,31.1073181 C72.1427698,31.0817154 72.1683705,31.0561127 72.1683705,31.0305099 C72.2195719,30.9537017 72.2707733,30.8768935 72.3219747,30.8256881 C72.3475754,30.7744826 72.3731761,30.7488799 72.3987768,30.6976744 C72.4499782,30.6208662 72.4755789,30.544058 72.5267803,30.4672498 C72.552381,30.4416471 72.552381,30.4160444 72.5779817,30.3904416 C72.5779817,30.3648389 72.6035824,30.3392362 72.6035824,30.3392362 C72.629183,30.3136335 72.629183,30.262428 72.6547837,30.2368253 C72.6803844,30.1600171 72.7059851,30.1088116 72.7315858,30.0320034 C72.7315858,30.0064007 72.7571865,29.9551952 72.7571865,29.9295925 C72.7571865,29.9039898 72.7827872,29.878387 72.7827872,29.878387 C72.7827872,29.8527843 72.7827872,29.8271816 72.7827872,29.8015788 C72.8083879,29.6735652 72.8339886,29.5455515 72.8339886,29.4175379 C72.8339886,29.3919351 72.8339886,29.3663324 72.8339886,29.3663324 C72.8339886,29.3407297 72.8339886,29.3151269 72.8339886,29.2895242 L72.8339886,25.9099637 C72.88519,25.9355665 72.8595893,25.9611692 72.8595893,26.0123747 Z" fill="#37670F"></path>
                        </g>
                        <path d="M67.2018349,20.4053766 L57.0895588,27.5741412 L40.0394932,39.6330275 C39.8346876,39.7610412 39.629882,39.8890548 39.4250765,39.9914658 C39.3994758,39.9914658 39.3994758,40.0170685 39.3738751,40.0170685 C39.3482744,40.0170685 39.3482744,40.0426712 39.3226737,40.0426712 C39.2202709,40.0938767 39.0922674,40.1450821 38.9898646,40.1962876 C38.9386632,40.2218903 38.9130625,40.2218903 38.8618611,40.2474931 C38.7082569,40.2986985 38.5546527,40.349904 38.3754478,40.4011095 C38.3754478,40.4011095 38.3754478,40.4011095 38.3498471,40.4011095 C38.3242464,40.4011095 38.3242464,40.4011095 38.3242464,40.4011095 C38.1194408,40.4523149 37.8890345,40.5035204 37.6842289,40.5291231 C37.6586282,40.5291231 37.6330275,40.5547258 37.6074268,40.5547258 C37.5818261,40.5547258 37.5818261,40.5547258 37.5562254,40.5547258 C37.3514198,40.5803286 37.1466142,40.6059313 36.9418087,40.631534 L36.8650066,40.631534 C36.7370031,40.631534 36.6089996,40.6571368 36.4809961,40.6571368 C36.3785933,40.6571368 36.2761905,40.6571368 36.1737877,40.6571368 C36.148187,40.6571368 36.1225863,40.6571368 36.1225863,40.6571368 C35.9177807,40.6571368 35.6873744,40.631534 35.4825688,40.6059313 L35.4569681,40.6059313 C35.4313674,40.6059313 35.4313674,40.6059313 35.4057667,40.6059313 C35.1497597,40.5803286 34.9193534,40.5035204 34.6633464,40.4523149 L34.6377457,40.4523149 L34.612145,40.4523149 C34.5353429,40.4267122 34.4329401,40.4011095 34.3561381,40.3755067 C34.279336,40.349904 34.2281346,40.349904 34.1513325,40.3243013 C34.0489297,40.2986985 33.9721276,40.2474931 33.8953255,40.2218903 C33.8441241,40.1962876 33.767322,40.1706849 33.7161206,40.1450821 C33.6137178,40.0938767 33.5369157,40.0426712 33.4345129,39.9914658 C33.3833115,39.965863 33.3321101,39.9402603 33.3065094,39.9146576 C33.1785059,39.8378494 33.0505024,39.7610412 32.9224989,39.6586303 L15.8724334,27.5741412 L5.73455657,20.4053766 L2.40646571,22.7608278 L12.6211446,29.8527843 L32.3080821,43.5246426 C32.4616863,43.6270536 32.6152905,43.7294645 32.7688947,43.8062727 C32.8200961,43.8318754 32.8712975,43.8574781 32.9224989,43.8830809 C33.0249017,43.9342863 33.1273045,43.9854918 33.255308,44.0366972 C33.3321101,44.0623 33.3833115,44.0879027 33.4601136,44.1135054 C33.5625164,44.1647109 33.6649192,44.1903136 33.767322,44.2415191 C33.8441241,44.2671218 33.9209262,44.2927246 33.9977283,44.3183273 C34.1001311,44.34393 34.2025339,44.3951355 34.3049367,44.4207382 L34.3305374,44.4207382 C34.3561381,44.4207382 34.3561381,44.4207382 34.3817388,44.4207382 C34.6633464,44.4975464 34.9449541,44.5487519 35.2265618,44.5999573 C35.2521625,44.5999573 35.2777632,44.5999573 35.2777632,44.6255601 C35.3033639,44.6255601 35.3033639,44.6255601 35.3033639,44.6255601 C35.5593709,44.6511628 35.7897772,44.6767655 36.0457842,44.7023683 C36.0713849,44.7023683 36.0969856,44.7023683 36.1225863,44.7023683 C36.2505898,44.7023683 36.3529926,44.7023683 36.4809961,44.7023683 C36.6346003,44.7023683 36.7882045,44.7023683 36.9418087,44.6767655 C36.9674093,44.6767655 36.9674093,44.6767655 36.99301,44.6767655 C37.2234163,44.6511628 37.4794233,44.6511628 37.7098296,44.5999573 C37.7354303,44.5999573 37.7354303,44.5999573 37.761031,44.5999573 C37.7866317,44.5999573 37.8122324,44.5743546 37.8634338,44.5743546 C38.1194408,44.5231491 38.3754478,44.4719437 38.6314548,44.3951355 C38.6570555,44.3951355 38.6570555,44.3951355 38.6826562,44.3951355 C38.6826562,44.3951355 38.6826562,44.3951355 38.7082569,44.3951355 C38.8874618,44.34393 39.0922674,44.2927246 39.2714723,44.2159164 C39.3226737,44.1903136 39.3738751,44.1903136 39.4250765,44.1647109 C39.5530799,44.1135054 39.6810834,44.0623 39.8090869,43.9854918 C39.8346876,43.9854918 39.8602883,43.9598891 39.8602883,43.9598891 C39.885889,43.9342863 39.9114897,43.9342863 39.9370904,43.9086836 C40.1930974,43.7806699 40.4235037,43.6526563 40.65391,43.4990399 L60.3408475,29.8271816 L70.5555264,22.7352251 L67.2018349,20.4053766 Z" fill="#000000" opacity="0.15"></path>
                    </g>
                    <g opacity="0.93" id="Shape">
                        <g fill="#00B8DB">
                            <path d="M36.4809961,0.153616386 C37.761031,0.153616386 39.041066,0.512054619 40.0138925,1.20332836 L71.4003495,23.4008961 C73.3716033,24.7834436 73.3716033,27.0364839 71.4003495,28.4190314 L40.0138925,50.6165991 C39.041066,51.3078728 37.761031,51.6663111 36.4809961,51.6663111 C35.2009611,51.6663111 33.9209262,51.3078728 32.9480996,50.6165991 L1.56164264,28.4190314 C-0.409611184,27.0364839 -0.409611184,24.7834436 1.56164264,23.4008961 L32.9480996,1.20332836 C33.9209262,0.512054619 35.2009611,0.153616386 36.4809961,0.153616386 Z"></path>
                        </g>
                        <g transform="translate(0.768021, 0.512055)" fill="url(#linearGradient-1)">
                            <path d="M35.7129751,0.230424579 C36.9674093,0.230424579 38.2218436,0.563260081 39.1690695,1.25453382 L69.8899083,22.9400469 C71.8099607,24.2969917 71.8099607,26.4988265 69.8899083,27.8301686 L39.1690695,49.5412844 C38.2218436,50.2069554 36.9674093,50.5653936 35.7129751,50.5653936 C34.4585408,50.5653936 33.2041066,50.2325581 32.2568807,49.5412844 L1.53604194,27.8301686 C-0.384010485,26.4732238 -0.384010485,24.2713889 1.53604194,22.9400469 L32.2568807,1.22893109 C33.2041066,0.563260081 34.4585408,0.230424579 35.7129751,0.230424579 Z"></path>
                        </g>
                        <path d="M72.8595893,26.0379774 C72.8595893,26.165991 72.8339886,26.2940047 72.8083879,26.4220183 C72.8083879,26.4732238 72.7827872,26.4988265 72.7827872,26.550032 C72.7827872,26.5756347 72.7571865,26.6268402 72.7571865,26.6524429 C72.7315858,26.7292511 72.7059851,26.7804566 72.6803844,26.8572648 C72.6547837,26.8828675 72.6547837,26.934073 72.629183,26.9596757 C72.6035824,27.0108812 72.5779817,27.0620866 72.552381,27.1132921 C72.5267803,27.1901003 72.4755789,27.2669085 72.4243775,27.3437167 C72.3987768,27.3949221 72.3731761,27.4205249 72.3475754,27.4717303 C72.296374,27.5485385 72.2451726,27.6253467 72.1939712,27.6765522 C72.1683705,27.7277576 72.1171691,27.7533604 72.0915684,27.8045658 C72.0147663,27.881374 71.9635649,27.9581822 71.8867628,28.0093877 C71.8611621,28.0349904 71.8099607,28.0861959 71.78436,28.1117986 C71.6819572,28.2142095 71.5539537,28.3166204 71.4259502,28.3934286 L40.0394932,50.5909964 C39.8346876,50.71901 39.629882,50.8470237 39.4250765,50.9494346 C39.3994758,50.9750373 39.3482744,51.0006401 39.3226737,51.0006401 C39.2202709,51.0518455 39.0922674,51.103051 38.9898646,51.1542565 C38.9386632,51.1798592 38.9130625,51.1798592 38.8618611,51.2054619 C38.7082569,51.2566674 38.5546527,51.3078728 38.3754478,51.3590783 C38.3498471,51.3590783 38.3498471,51.3590783 38.3242464,51.3590783 C38.1194408,51.4102838 37.8890345,51.4614892 37.6842289,51.5126947 C37.6330275,51.5126947 37.6074268,51.5382974 37.5562254,51.5382974 C37.3514198,51.5639001 37.1466142,51.5895029 36.9418087,51.6151056 C36.7882045,51.6151056 36.660201,51.6407083 36.5065968,51.6407083 C36.3785933,51.6407083 36.2505898,51.6407083 36.148187,51.6407083 C35.9433814,51.6407083 35.7129751,51.6151056 35.5081695,51.5895029 C35.4825688,51.5895029 35.4569681,51.5895029 35.4313674,51.5639001 C35.1753604,51.5382974 34.9449541,51.487092 34.7145478,51.4102838 C34.6889471,51.4102838 34.6633464,51.4102838 34.6633464,51.384681 C34.5865443,51.3590783 34.4841415,51.3334756 34.4073394,51.3078728 C34.3305374,51.2822701 34.279336,51.2566674 34.2025339,51.2566674 C34.1257318,51.2310646 34.023329,51.1798592 33.9465269,51.1542565 C33.8953255,51.1286537 33.8185234,51.103051 33.767322,51.0774483 C33.6649192,51.0262428 33.5881171,50.9750373 33.4857143,50.9494346 C33.4345129,50.9238319 33.3833115,50.8982291 33.3577108,50.8726264 C33.2297073,50.7958182 33.1017038,50.71901 32.9737003,50.6165991 L1.56164264,28.4190314 C0.588816077,27.7277576 0.102402796,26.831662 0.102402796,25.9099637 L0.102402796,29.2895242 C0.102402796,30.1856198 0.588816077,31.1073181 1.56164264,31.7985918 L32.9480996,53.9961596 C33.0761031,54.0729678 33.2041066,54.1753787 33.3321101,54.2521869 C33.3833115,54.2777896 33.4089122,54.3033924 33.4601136,54.3289951 C33.5625164,54.3802006 33.6393185,54.431406 33.7417213,54.4826115 C33.7929227,54.5082142 33.8697248,54.5338169 33.9209262,54.5594197 C33.9977283,54.5850224 34.1001311,54.6362279 34.1769332,54.6618306 C34.2537353,54.6874333 34.3049367,54.7130361 34.3817388,54.7386388 C34.4585408,54.7642415 34.5609436,54.7898443 34.6377457,54.815447 C34.6377457,54.815447 34.6377457,54.815447 34.6633464,54.815447 C34.6889471,54.815447 34.6889471,54.815447 34.7145478,54.815447 C34.9449541,54.8922552 35.2009611,54.9434606 35.4313674,54.9690634 C35.4569681,54.9690634 35.4569681,54.9690634 35.4825688,54.9690634 L35.5081695,54.9690634 C35.7129751,54.9946661 35.9177807,55.0202688 36.148187,55.0202688 C36.1737877,55.0202688 36.1993884,55.0202688 36.1993884,55.0202688 C36.3017912,55.0202688 36.404194,55.0202688 36.5065968,55.0202688 C36.6346003,55.0202688 36.7626038,55.0202688 36.8906073,55.0202688 L36.916208,55.0202688 C37.1210135,55.0202688 37.3258191,54.9946661 37.5306247,54.9434606 C37.5562254,54.9434606 37.5562254,54.9434606 37.5818261,54.9434606 C37.6074268,54.9434606 37.6330275,54.9434606 37.6586282,54.9178579 C37.8890345,54.8922552 38.0938401,54.8410497 38.2986457,54.7642415 L38.3242464,54.7642415 C38.3242464,54.7642415 38.3242464,54.7642415 38.3498471,54.7642415 C38.5034513,54.7130361 38.6826562,54.6618306 38.8362604,54.6106251 C38.8874618,54.5850224 38.9130625,54.5850224 38.9642639,54.5594197 C39.0666667,54.5082142 39.1946702,54.4570087 39.297073,54.4058033 C39.3226737,54.4058033 39.3226737,54.3802006 39.3482744,54.3802006 C39.3738751,54.3802006 39.3994758,54.3545978 39.3994758,54.3545978 C39.6042813,54.2521869 39.8346876,54.1241732 40.0138925,53.9961596 L71.4003495,31.7985918 C71.528353,31.6961809 71.6563565,31.59377 71.7587593,31.5169618 C71.78436,31.4913591 71.8355614,31.4401536 71.8611621,31.4145509 C71.9379642,31.3377427 72.0147663,31.2609345 72.0659677,31.209729 C72.0659677,31.1841263 72.0915684,31.1841263 72.1171691,31.1585236 C72.1427698,31.1329208 72.1683705,31.1073181 72.1683705,31.0817154 C72.2195719,31.0049072 72.2707733,30.9537017 72.3219747,30.8768935 C72.3475754,30.8256881 72.3731761,30.8000853 72.3987768,30.7488799 C72.4499782,30.6720717 72.4755789,30.5952635 72.5267803,30.5184553 C72.552381,30.4928526 72.552381,30.4672498 72.5779817,30.4416471 C72.5779817,30.4160444 72.6035824,30.3904416 72.6035824,30.3904416 C72.629183,30.3648389 72.629183,30.3136335 72.6547837,30.2880307 C72.6803844,30.2112225 72.7059851,30.1600171 72.7315858,30.0832089 C72.7315858,30.0576061 72.7571865,30.0064007 72.7571865,29.980798 C72.7571865,29.9551952 72.7827872,29.9295925 72.7827872,29.9295925 C72.7827872,29.9039898 72.7827872,29.878387 72.7827872,29.8527843 C72.8083879,29.7247706 72.8339886,29.596757 72.8339886,29.4687433 C72.8339886,29.4431406 72.8339886,29.4175379 72.8339886,29.4175379 C72.8339886,29.3919351 72.8339886,29.3663324 72.8339886,29.3407297 L72.8339886,25.9611692 C72.88519,25.9355665 72.8595893,25.9867719 72.8595893,26.0379774 Z" fill="#006072"></path>
                    </g>
                </g>
                <g id="Group" transform="translate(87.298384, 20.994239)" fill="#27283B">
                    <path d="M12.5699432,33.0531257 L9.39545653,40.8875613 L0.204805592,40.8875613 L17.7156837,0.025602731 L25.8311053,0.025602731 L43.2651813,40.8619586 L34.1257318,40.8619586 L30.9512451,33.0275229 L12.5699432,33.0275229 L12.5699432,33.0531257 L12.5699432,33.0531257 Z M21.7093927,10.3435033 L15.7444299,25.21869 L27.7511577,25.21869 L21.7093927,10.3435033 Z" id="Shape"></path>
                    <polygon id="Shape" points="61.492879 8.14166844 61.492879 40.8875613 52.8398427 40.8875613 52.8398427 8.14166844 39.2714723 8.14166844 39.2714723 0.25602731 75.0612495 0.25602731 75.0612495 8.14166844"></polygon>
                    <path d="M116.201573,22.4023896 C116.201573,34.5380841 108.905374,41.7580542 97.7946702,41.7580542 C86.7351682,41.7580542 79.5157711,34.5380841 79.5157711,22.4023896 L79.5157711,0.230424579 L88.1176059,0.230424579 L88.1176059,22.4791978 C88.1176059,29.2383188 92.0089122,33.7187967 97.7946702,33.7187967 C103.708432,33.7187967 107.599738,29.2383188 107.599738,22.4791978 L107.599738,0.25602731 L116.201573,0.25602731 L116.201573,22.4023896 L116.201573,22.4023896 Z" id="Shape"></path>
                    <polygon id="Shape" points="166.378943 40.8619586 157.725907 40.8619586 157.725907 18.8180073 147.562429 34.7685086 142.493491 34.7685086 142.493491 34.7173032 132.278812 18.6387881 132.406815 40.8619586 123.676977 40.8619586 123.676977 0.25602731 129.897947 0.25602731 145.079161 24.1433753 160.260376 0.25602731 166.404543 0.25602731"></polygon>
                </g>
            </g>
            <polygon id="Line" fill="#27283B" points="274.664286 0 274.664286 85.0238062 273.664286 85.0238062 273.664286 0"></polygon>
        </g>
    </g>
</svg>