<svg xmlns="http://www.w3.org/2000/svg" xmlns:xlink="http://www.w3.org/1999/xlink" viewBox="0 0 270.72 263.64"><defs><style>.cls-1{fill:url(#Degradado_sin_nombre_473);}.cls-2{fill:#22233a;}.cls-3{fill:url(#Degradado_sin_nombre_13);}.cls-4{fill:url(#Degradado_sin_nombre_265);}.cls-5{opacity:0.2;}.cls-6{fill:#4f5d73;}</style><linearGradient id="Degradado_sin_nombre_473" x1="195.78" y1="101.1" x2="90.72" y2="101.1" gradientUnits="userSpaceOnUse"><stop offset="0" stop-color="#1dc694"/><stop offset="1" stop-color="#00b8db"/></linearGradient><linearGradient id="Degradado_sin_nombre_13" x1="127.86" y1="217.97" x2="22.79" y2="217.97" gradientUnits="userSpaceOnUse"><stop offset="0.27" stop-color="#efaf00"/><stop offset="1" stop-color="#fc646b"/></linearGradient><linearGradient id="Degradado_sin_nombre_265" x1="263.71" y1="217.97" x2="158.64" y2="217.97" gradientUnits="userSpaceOnUse"><stop offset="0" stop-color="#69c61d"/><stop offset="1" stop-color="#b4ef00"/></linearGradient></defs><g id="Capa_2" data-name="Capa 2"><g id="Layer_1" data-name="Layer 1"><path class="cls-1" d="M149.39,92.45a10.58,10.58,0,0,1-12.25,0L92.82,60.63a1.32,1.32,0,0,0-2.1,1.06V104a6.64,6.64,0,0,0,3,5.37L137,140a8.12,8.12,0,0,0,.72.46l.23.12,0,0,.47.24.25.11.14.06.37.15.29.09.13.05.3.09.17,0,.08,0a11.19,11.19,0,0,0,1.12.24l.15,0h.14c.3,0,.61.07.94.09h.17l.52,0,.67,0H144c.31,0,.62-.05.95-.1l.13,0,.21,0c.35-.06.68-.13,1-.21l.21-.06.82-.27a1,1,0,0,0,.21-.09c.19-.07.37-.15.56-.24l.14-.06.2-.11a8.58,8.58,0,0,0,1.05-.64l43.28-30.6a7.15,7.15,0,0,0,.7-.56l.22-.2c.13-.12.25-.25.37-.37l.13-.15a1.56,1.56,0,0,0,.16-.2c.11-.13.21-.27.3-.4a2.9,2.9,0,0,0,.19-.29,2.86,2.86,0,0,0,.24-.42l.13-.23c0-.06,0-.13.08-.19s.05-.14.08-.2a4,4,0,0,0,.15-.45,1.72,1.72,0,0,0,.07-.21c0-.07,0-.14,0-.2a2,2,0,0,0,0-.26,4.2,4.2,0,0,0,.08-.62l0-.11V62.19a1.32,1.32,0,0,0-2.13-1Z"/><path class="cls-2" d="M138,11.21a8.12,8.12,0,0,1,4.6,1.33L189,45.41a3.54,3.54,0,0,1,1.7,2.8V98.56a3.51,3.51,0,0,1-1.7,2.79l-46.5,32.88a8.59,8.59,0,0,1-9.2,0L86.85,101.35a3.53,3.53,0,0,1-1.7-2.79V48.21a3.57,3.57,0,0,1,1.7-2.8l46.5-32.87a8.1,8.1,0,0,1,4.6-1.33M138,0a19.26,19.26,0,0,0-11.08,3.39L80.38,36.26a14.61,14.61,0,0,0-6.43,12V98.56a14.58,14.58,0,0,0,6.43,11.94l46.49,32.87a19.74,19.74,0,0,0,22.15,0l46.49-32.87A14.59,14.59,0,0,0,202,98.56V48.21a14.62,14.62,0,0,0-6.44-12L149,3.39A19.25,19.25,0,0,0,138,0Z"/><path class="cls-3" d="M81.46,209.32a10.55,10.55,0,0,1-12.24,0L24.9,177.5a1.33,1.33,0,0,0-2.11,1.07v42.3a6.61,6.61,0,0,0,3,5.36l43.28,30.61c.22.15.46.31.71.45l.24.13,0,0a4.3,4.3,0,0,0,.48.24l.25.11.14.06.37.15.29.1.13,0,.3.1.17.05.08,0c.37.09.75.17,1.12.23l.15,0,.14,0c.3,0,.61.07.94.09h.69l.67,0h.11c.3,0,.61-.05.94-.1h.14l.2,0a8.54,8.54,0,0,0,1-.22l.21-.05.82-.27.21-.09.56-.25.14-.06.19-.1a9.27,9.27,0,0,0,1.06-.64l43.27-30.6a7.59,7.59,0,0,0,.71-.56l.21-.21a4.31,4.31,0,0,0,.37-.37l.14-.14a1.66,1.66,0,0,0,.16-.21q.16-.19.3-.39l.19-.29a3.62,3.62,0,0,0,.24-.43,1.19,1.19,0,0,0,.12-.22l.09-.2.08-.2a4.59,4.59,0,0,0,.15-.44,1.8,1.8,0,0,0,.06-.22l.06-.19a2.34,2.34,0,0,0,0-.26,4.58,4.58,0,0,0,.08-.62l0-.12V179.06a1.32,1.32,0,0,0-2.13-1Z"/><path class="cls-2" d="M70,128.08a8.13,8.13,0,0,1,4.6,1.34l46.49,32.87a3.54,3.54,0,0,1,1.7,2.79v50.36a3.54,3.54,0,0,1-1.7,2.79l-46.5,32.88a8.59,8.59,0,0,1-9.2,0L18.93,218.23a3.57,3.57,0,0,1-1.7-2.8V165.08a3.57,3.57,0,0,1,1.7-2.79l46.5-32.88a8.15,8.15,0,0,1,4.6-1.33m0-11.2A19.26,19.26,0,0,0,59,120.27L12.46,153.14A14.59,14.59,0,0,0,6,165.08v50.35a14.61,14.61,0,0,0,6.44,11.95L59,260.25a19.79,19.79,0,0,0,22.15,0l46.49-32.87A14.61,14.61,0,0,0,134,215.43V165.08a14.59,14.59,0,0,0-6.44-11.94L81.1,120.27A19.25,19.25,0,0,0,70,116.88Z"/><path class="cls-4" d="M217.31,209.32a10.55,10.55,0,0,1-12.24,0L160.75,177.5a1.33,1.33,0,0,0-2.11,1.07v42.3a6.63,6.63,0,0,0,3,5.36l43.28,30.61c.23.15.47.31.72.45a1.71,1.71,0,0,0,.23.13l.05,0a4.16,4.16,0,0,0,.47.24l.25.11.14.06.37.15.29.1.13,0,.31.1.16.05.09,0c.36.09.74.17,1.11.23l.15,0,.14,0c.3,0,.61.07,1,.09h.68l.67,0H212c.3,0,.61-.05.94-.1H213l.21,0a8.36,8.36,0,0,0,1-.22l.21-.05c.27-.08.55-.17.82-.27l.22-.09.55-.25.15-.06.19-.1a10.23,10.23,0,0,0,1.06-.64l43.27-30.6c.24-.17.47-.36.7-.56l.22-.21.37-.37.13-.14.17-.21.29-.39.19-.29c.09-.14.17-.28.25-.43l.12-.22.08-.2a1.67,1.67,0,0,0,.08-.2c.06-.15.11-.3.16-.44l.06-.22a1.8,1.8,0,0,0,.05-.19,2.34,2.34,0,0,0,0-.26,4.58,4.58,0,0,0,.08-.62l0-.12V179.06a1.33,1.33,0,0,0-2.14-1Z"/><path class="cls-2" d="M205.87,128.08a8.1,8.1,0,0,1,4.6,1.34L257,162.29a3.54,3.54,0,0,1,1.7,2.79v50.36a3.54,3.54,0,0,1-1.7,2.79l-46.5,32.88a8.58,8.58,0,0,1-9.19,0l-46.5-32.87a3.57,3.57,0,0,1-1.7-2.8V165.08a3.57,3.57,0,0,1,1.7-2.79l46.51-32.88a8.12,8.12,0,0,1,4.59-1.33m0-11.2a19.23,19.23,0,0,0-11.07,3.39l-46.5,32.87a14.58,14.58,0,0,0-6.43,11.94v50.35a14.6,14.6,0,0,0,6.43,11.95l46.5,32.87a19.77,19.77,0,0,0,22.14,0l46.49-32.87a14.58,14.58,0,0,0,6.44-11.95V165.08a14.56,14.56,0,0,0-6.44-11.94l-46.49-32.87a19.25,19.25,0,0,0-11.07-3.39Z"/><g class="cls-5"><polygon class="cls-6" points="97.42 131.81 110.13 140.79 120.44 138.83 107.73 129.84 97.42 131.81"/><path class="cls-6" d="M258.94,106.72a5.61,5.61,0,0,0-6.56-4.46l-38.65,7.37-23.26,4.44-22.09,15.62,17.93-3.42,8.49-6a19.77,19.77,0,0,1,22.14,0l.18.13,37.36-7.13A5.6,5.6,0,0,0,258.94,106.72Z"/><path class="cls-6" d="M264.06,71,202,82.83v11.4L266.16,82a5.6,5.6,0,1,0-2.1-11Z"/><path class="cls-6" d="M70,116.88a20.09,20.09,0,0,1,6.84,1.2l11.2-2.14-7.69-5.44a15.87,15.87,0,0,1-3.81-3.77l-4.93.94L33,115a5.6,5.6,0,1,0,2.1,11l21.5-4.1L59,120.27A19.26,19.26,0,0,1,70,116.88Z"/><path class="cls-6" d="M21.3,146.32a5.58,5.58,0,0,0-4.18,3.52l5.29-3.73Z"/><path class="cls-6" d="M202,63.8l2.93-.56,38.66-7.36a5.6,5.6,0,1,0-2.1-11l-38.65,7.37-.84.16Z"/><path class="cls-6" d="M256.8,30.51a12.18,12.18,0,1,0-12.18-12.17A12.17,12.17,0,0,0,256.8,30.51Zm0-18.74a6.57,6.57,0,1,1-6.57,6.57A6.57,6.57,0,0,1,256.8,11.77Z"/><path class="cls-6" d="M12.45,99.93,74,88.21V76.8L10.36,88.92a5.6,5.6,0,0,0,2.09,11Z"/><path class="cls-6" d="M8.05,68.41a4.53,4.53,0,1,0,9.06,0V64.9h3.52a4.54,4.54,0,0,0,0-9.07H17.11V52.32a4.53,4.53,0,1,0-9.06,0v3.51H4.53a4.54,4.54,0,0,0,0,9.07H8.05Z"/></g></g></g></svg>