<svg xmlns="http://www.w3.org/2000/svg" xmlns:xlink="http://www.w3.org/1999/xlink" viewBox="0 0 140 114.97"><defs><style>.cls-1{fill:#22233c;}.cls-2{fill:url(#Degradado_sin_nombre_23);}.cls-3{opacity:0.2;fill:url(#Degradado_sin_nombre_23-2);}</style><linearGradient id="Degradado_sin_nombre_23" x1="36.41" y1="84.55" x2="63.3" y2="84.55" gradientUnits="userSpaceOnUse"><stop offset="0" stop-color="#3ea1db"/><stop offset="1" stop-color="#5d34ec"/></linearGradient><linearGradient id="Degradado_sin_nombre_23-2" x1="0" y1="53.08" x2="140" y2="53.08" xlink:href="#Degradado_sin_nombre_23"/></defs><g id="Capa_2" data-name="Capa 2"><g id="Capa_1-2" data-name="Capa 1"><path class="cls-1" d="M32.12,54.09a1.41,1.41,0,0,1-.93-2.48l10.31-9a1.42,1.42,0,1,1,1.86,2.14l-10.31,9A1.38,1.38,0,0,1,32.12,54.09Z"/><path class="cls-1" d="M40.25,73.06a1.41,1.41,0,0,1-.93-2.48l10.35-9a1.42,1.42,0,0,1,1.86,2.14l-10.35,9A1.43,1.43,0,0,1,40.25,73.06Z"/><path class="cls-1" d="M69.45,102.29a1.41,1.41,0,0,1-.93-2.48l10.31-9A1.42,1.42,0,1,1,80.69,93l-10.31,9A1.38,1.38,0,0,1,69.45,102.29Z"/><path class="cls-1" d="M21.33,59.89c-.31-1.22-.6-2.44-.86-3.67a2.28,2.28,0,0,1,.73-2.17l2.7-2.35a1.13,1.13,0,0,1,1.84.6c.26,1.17.54,2.34.85,3.49a2.3,2.3,0,0,1-.69,2.31l-2.72,2.36A1.14,1.14,0,0,1,21.33,59.89Z"/><path class="cls-1" d="M27.08,75.32c.69,1.39,1.41,2.76,2.18,4.11a1.13,1.13,0,0,0,1.73.29l3.41-3a1.14,1.14,0,0,0,.23-1.42q-1.12-2-2.13-4A1.13,1.13,0,0,0,30.74,71L27.36,74A1.14,1.14,0,0,0,27.08,75.32Z"/><path class="cls-1" d="M130.09,30.17a.55.55,0,0,1,.1-.74l.66-.58a2.83,2.83,0,0,0,.27-4l-1.47-1.69a.57.57,0,0,1,0-.8l3.94-3.43a3.64,3.64,0,0,0,.52-5,3.54,3.54,0,0,0-5.07-.43L125,17a.56.56,0,0,1-.8-.05l-1.5-1.72a2.83,2.83,0,0,0-4-.28L73.65,54.31c-3.47,3-9.81,13-8.51,17.76l-3.7,3.23a1.42,1.42,0,0,0-.13,2,1.41,1.41,0,0,0,2,.14L67,74.2a4.47,4.47,0,0,0,.78.27c4.85,1.15,14.69-3.42,18-6.28l41.38-36.1a.57.57,0,0,1,.9.22,2.12,2.12,0,0,1-.6,2.32l-21,18.28a.55.55,0,0,0-.08.77,2.27,2.27,0,0,0,3.22.25l19.68-17.17A5,5,0,0,0,130.09,30.17ZM82,63.92a26.44,26.44,0,0,1-6.71,3.62A25.8,25.8,0,0,1,72,68.6a.56.56,0,0,1-.65-.75,24.82,24.82,0,0,1,1.5-3.12,26.23,26.23,0,0,1,4.5-6.15L97.49,41l4.65,5.33Zm42.52-37.11-20.28,17.7-4.66-5.34,20.29-17.69a.57.57,0,0,1,.8.05L124.62,26A.56.56,0,0,1,124.56,26.81Z"/><path class="cls-1" d="M95,86.28a75.8,75.8,0,0,1-15.75-9.63,2.86,2.86,0,0,0-2.67-.49l-.07,0A2.79,2.79,0,0,0,75.59,81,83,83,0,0,0,91,90.67a1.14,1.14,0,0,1,.26,1.88l-13,11.31-.26.23h0c-.29.24-.59.47-.89.69l-.24.16c-.27.2-.55.38-.83.55l-.11.07c-.35.21-.71.41-1.07.6h0a22.22,22.22,0,0,1-3.45,1.44h0a12.49,12.49,0,0,1-2.36.22,12.66,12.66,0,0,1-6.76-1.94l-1-.67a2.83,2.83,0,0,0-2.25-.34l-1.2.32A23.86,23.86,0,0,1,34.69,99,70.4,70.4,0,0,1,14,52.52a2.24,2.24,0,0,1,.78-1.82L44,25.22a.56.56,0,0,1,.93.37A81.44,81.44,0,0,0,59.11,63.47a2.94,2.94,0,0,0,5.08-.4l0-.07a3,3,0,0,0-.2-2.9A90.07,90.07,0,0,1,50.85,23.41a5.66,5.66,0,0,0-9.34-3.54L12.32,45.33a11.41,11.41,0,0,0-3.84,9.49,76.29,76.29,0,0,0,22.2,48.23A40.6,40.6,0,0,0,59.45,115a44.88,44.88,0,0,0,13.44-1.87h0l.09,0,.45-.16.89-.31.51-.2.79-.32.52-.23.75-.36.52-.26.72-.39.49-.28.72-.45.45-.29c.26-.17.51-.35.75-.53L81,109c.37-.28.72-.57,1.07-.87h0L96.29,95.69A5.67,5.67,0,0,0,95,86.28Z"/><path class="cls-1" d="M130.09,30.17a.55.55,0,0,1,.1-.74l.66-.58a2.83,2.83,0,0,0,.27-4l-1.47-1.69a.57.57,0,0,1,0-.8l3.94-3.43a3.64,3.64,0,0,0,.52-5,3.54,3.54,0,0,0-5.07-.43L125,17a.56.56,0,0,1-.8-.05l-1.5-1.72a2.83,2.83,0,0,0-4-.28L73.65,54.31c-3.47,3-9.81,13-8.51,17.76l-3.7,3.23a1.42,1.42,0,0,0-.13,2,1.41,1.41,0,0,0,2,.14L67,74.2a4.47,4.47,0,0,0,.78.27c4.85,1.15,14.69-3.42,18-6.28l41.38-36.1a.57.57,0,0,1,.9.22,2.12,2.12,0,0,1-.6,2.32l-21,18.28a.55.55,0,0,0-.08.77,2.27,2.27,0,0,0,3.22.25l19.68-17.17A5,5,0,0,0,130.09,30.17ZM82,63.92a26.44,26.44,0,0,1-6.71,3.62A25.8,25.8,0,0,1,72,68.6a.56.56,0,0,1-.65-.75,24.82,24.82,0,0,1,1.5-3.12,26.23,26.23,0,0,1,4.5-6.15L97.49,41l4.65,5.33Zm42.52-37.11-20.28,17.7-4.66-5.34,20.29-17.69a.57.57,0,0,1,.8.05L124.62,26A.56.56,0,0,1,124.56,26.81Z"/><path class="cls-2" d="M62.05,77.75a1.44,1.44,0,0,1-.74-.45,1.41,1.41,0,0,1,.14-2L44.14,90.39l-5.24-6a1.42,1.42,0,0,0-2.14,1.86l6.18,7.08a1.43,1.43,0,0,0,1,.49H44a1.4,1.4,0,0,0,.93-.35l18.36-16A1.4,1.4,0,0,1,62.05,77.75Z"/><path class="cls-3" d="M107.65,24.65,53.92,37.84c-.37-1.27-.72-2.55-1-3.83l61.29-15ZM44.14,90.39l.89-.77c-.39-.42-.77-.85-1.15-1.28a1.12,1.12,0,0,0-1.59-.11h0ZM1.51,59.79A2,2,0,0,0,2,63.7a2,2,0,0,0,.48-.05L9.37,62C9.14,60.64,9,59.32,8.79,58ZM51.13,25.36,138.49,3.91a2,2,0,1,0-1-3.85L50.24,21.5a6,6,0,0,1,.61,1.91C50.93,24.06,51,24.71,51.13,25.36ZM.06,49a2,2,0,0,0,2.4,1.45L9.7,48.7a11.2,11.2,0,0,1,2.62-3.37l2.17-1.89-13,3.19A2,2,0,0,0,.06,49ZM125,17l1.17-1-2.31.57.34.4A.56.56,0,0,0,125,17ZM93.17,37.28,56.84,46.2c.51,1.25,1,2.48,1.6,3.7L86.65,43ZM124.11,97.5h-1.77V95.72a2.3,2.3,0,0,0-4.59,0V97.5H116a2.29,2.29,0,0,0,0,4.58h1.78v1.78a2.3,2.3,0,0,0,4.59,0v-1.78h1.77a2.29,2.29,0,0,0,0-4.58Zm13.43-71.11-6,1.46a2.84,2.84,0,0,1-.73,1l-.66.58a.55.55,0,0,0-.1.74,4.91,4.91,0,0,1,.82,1.93l7.58-1.86a2,2,0,0,0-1-3.85Zm-10.4,5.7-1.49,1.3,2.49-.61a1.88,1.88,0,0,0-.1-.47A.57.57,0,0,0,127.14,32.09Zm10.4-18.87-3.29.81a3.59,3.59,0,0,1,.1,4.06l4.14-1a2,2,0,0,0-1-3.85ZM47,91.7l-2,1.76a1.4,1.4,0,0,1-.93.35h-.1a1.43,1.43,0,0,1-1-.49L40.13,90.1l-1.29,1.12a1.14,1.14,0,0,0-.11,1.6Q40.31,94.65,42,96.4a1.13,1.13,0,0,0,1.55.06l3.44-3a1.13,1.13,0,0,0,.07-1.65ZM.06,35.86a2,2,0,0,0,2.4,1.46L29,30.81l6.52-5.69-34,8.34A2,2,0,0,0,.06,35.86Zm124.63-9.71-3.08-3.54-12.27,10.7-4.17,1-5.55,4.83.44.51,2.76-.68-1.9,1.66,3.36,3.85,20.28-17.7A.54.54,0,0,0,124.69,26.15ZM79.08,59.71a26.47,26.47,0,0,0-4.5,6.15c-.49.88-.88,1.67-1.19,2.36.59-.18,1.24-.4,1.94-.68A26.44,26.44,0,0,0,82,63.92l20.1-17.55-3.36-3.85Z"/></g></g></svg>