<svg xmlns="http://www.w3.org/2000/svg" xmlns:xlink="http://www.w3.org/1999/xlink" viewBox="0 0 139.3 140"><defs><style>.cls-1{fill:url(#Degradado_sin_nombre_33);}.cls-2{fill:url(#Degradado_sin_nombre_25);}.cls-3{fill:#22233c;}.cls-4{opacity:0.2;fill:url(#Degradado_sin_nombre_33-2);}</style><linearGradient id="Degradado_sin_nombre_33" x1="56.56" y1="16.58" x2="84.86" y2="59.47" gradientUnits="userSpaceOnUse"><stop offset="0" stop-color="#53f1d5"/><stop offset="0.99" stop-color="#ff8235"/></linearGradient><linearGradient id="Degradado_sin_nombre_25" x1="45.84" y1="45.98" x2="95.36" y2="45.98" gradientUnits="userSpaceOnUse"><stop offset="0" stop-color="#fff" stop-opacity="0.5"/><stop offset="0.5" stop-color="#fff" stop-opacity="0"/><stop offset="0.9" stop-color="#fff" stop-opacity="0.5"/></linearGradient><linearGradient id="Degradado_sin_nombre_33-2" x1="0" y1="70" x2="139.3" y2="70" xlink:href="#Degradado_sin_nombre_33"/></defs><g id="Capa_2" data-name="Capa 2"><g id="Capa_1-2" data-name="Capa 1"><path class="cls-1" d="M93.77,22.28,72.86,7.5a5.52,5.52,0,0,0-3.19-1,5.59,5.59,0,0,0-3.19,1L45.57,22.28A3.44,3.44,0,0,0,44,25.12V47.77a3.44,3.44,0,0,0,1.59,2.84L66.48,65.4a5.78,5.78,0,0,0,6.38,0L93.77,50.61a3.44,3.44,0,0,0,1.59-2.84V25.12A3.44,3.44,0,0,0,93.77,22.28Z"/><path class="cls-2" d="M69.67,66.36a5.52,5.52,0,0,0,3.19-1L93.77,50.61a3.44,3.44,0,0,0,1.59-2.84V26.63l-22,15.6a3.32,3.32,0,0,1-3.69,0L46.15,25.61A3.23,3.23,0,0,0,45.84,27V49.63A3.12,3.12,0,0,0,46.18,51L66.48,65.4A5.52,5.52,0,0,0,69.67,66.36Z"/><path class="cls-3" d="M112.31,85.57l-3-2.12L111,82.27a6.19,6.19,0,0,0,0-10.09L92.64,59l4.71-3.33a9.63,9.63,0,0,0,4.2-7.9V25.12a9.63,9.63,0,0,0-4.2-7.9L76.44,2.44a12,12,0,0,0-13.54,0L42,17.22a9.65,9.65,0,0,0-4.21,7.9V47.77A9.64,9.64,0,0,0,42,55.67l3.62,2.56L27.44,71.07a6.19,6.19,0,0,0,0,10.09l2.92,2.1-3.27,2.31a6.19,6.19,0,0,0,0,10.09l7.31,5.24v12.35A6.16,6.16,0,0,0,37,118.31L65,138.17a8.05,8.05,0,0,0,9.29,0l28.11-19.88a6.16,6.16,0,0,0,2.63-5V100.79l7.23-5.11a6.19,6.19,0,0,0,0-10.11Zm-31.81,25a1.23,1.23,0,0,1-1.44,0l-6.49-4.65a4.94,4.94,0,0,0-5.75,0L60,110.7a1.25,1.25,0,0,1-1.44,0L31.33,91.14a.62.62,0,0,1,0-1l6.11-4.34a3.1,3.1,0,0,0,0-5.05l-5.73-4.1a.62.62,0,0,1,0-1l21.93-15.5,10,7.1-22,15.56a.62.62,0,0,0,0,1l27.63,19.81a.65.65,0,0,0,.72,0L97.86,84a.63.63,0,0,0,0-1L75.64,67.23l9-6.36L106.7,76.71a.62.62,0,0,1,0,1l-4.52,3.18a3.1,3.1,0,0,0,0,5.06L108,90.11a.62.62,0,0,1,0,1ZM69,133.37,40.78,113.43a.59.59,0,0,1-.26-.5V101.54L56.44,113a5,5,0,0,0,5.75,0L69,108.18a1.23,1.23,0,0,1,1.44,0l6.49,4.65a4.94,4.94,0,0,0,5.74,0l16.23-11.47v11.55a.61.61,0,0,1-.26.5L70.4,133.37A1.25,1.25,0,0,1,69,133.37ZM44,25.12a3.47,3.47,0,0,1,1.58-2.84L66.48,7.5a5.78,5.78,0,0,1,6.38,0L93.77,22.28a3.48,3.48,0,0,1,1.59,2.84V47.77a3.5,3.5,0,0,1-1.59,2.85L73,65.33l-.1.07a5.8,5.8,0,0,1-6.39,0l-.09-.07L45.56,50.62A3.49,3.49,0,0,1,44,47.77Z"/><path class="cls-4" d="M111.81,29.22l-2.52,6.16-2.51-6.16,1,.56V11.49a1.55,1.55,0,0,1,3.09,0V29.78ZM31.55,38.6a1.55,1.55,0,1,0-3.1,0V56.89l-1-.57L30,62.49l2.51-6.17-1,.57ZM136.2,131.94a5,5,0,1,0-5,5,5,5,0,0,0,5-5m3.1,0a8.06,8.06,0,1,1-8.06-8,8.06,8.06,0,0,1,8.06,8ZM4.45,2.51V4.45H2.51a2.51,2.51,0,1,0,0,5H4.45V11.4a2.51,2.51,0,0,0,5,0V9.46H11.4a2.51,2.51,0,0,0,0-5H9.46V2.51a2.51,2.51,0,1,0-5,0Z"/></g></g></svg>