<?xml version="1.0" encoding="utf-8"?>
<!-- Generator: Adobe Illustrator 25.0.0, SVG Export Plug-In . SVG Version: 6.00 Build 0)  -->
<svg version="1.1" id="Capa_1" xmlns="http://www.w3.org/2000/svg" xmlns:xlink="http://www.w3.org/1999/xlink" x="0px" y="0px"
	 width="140px" height="140px" viewBox="0 0 140 140" style="enable-background:new 0 0 140 140;" xml:space="preserve">
<style type="text/css">
	.st0{fill:url(#SVGID_1_);}
	.st1{fill:url(#SVGID_2_);}
	.st2{opacity:0.2;fill:url(#SVGID_3_);}
	.st3{fill:none;}
	.st4{fill:#22233A;}
	.st5{fill:url(#SVGID_4_);}
</style>
<g>
	<linearGradient id="SVGID_1_" gradientUnits="userSpaceOnUse" x1="47.2534" y1="155.4033" x2="160.2843" y2="77.1087">
		<stop  offset="0" style="stop-color:#6293E9"/>
		<stop  offset="0.9904" style="stop-color:#EB33C3"/>
	</linearGradient>
	<path class="st0" d="M118,111.9v-1.7h1.7c1.2,0,2.2-1,2.2-2.2s-1-2.2-2.2-2.2H118V104c0-1.2-1-2.2-2.2-2.2c-1.2,0-2.2,1-2.2,2.2
		v1.7h-1.7c-1.2,0-2.2,1-2.2,2.2s1,2.2,2.2,2.2h1.7v1.7c0,1.2,1,2.2,2.2,2.2C117,114.1,118,113.1,118,111.9z"/>
	<linearGradient id="SVGID_2_" gradientUnits="userSpaceOnUse" x1="-22.9956" y1="54.3057" x2="93.3435" y2="-26.7458">
		<stop  offset="0" style="stop-color:#6293E9"/>
		<stop  offset="0.9904" style="stop-color:#EB33C3"/>
	</linearGradient>
	<path class="st1" d="M23.2,31c-4.9,0-8.9-4-8.9-8.9s4-8.9,8.9-8.9s8.9,4,8.9,8.9S28.1,31,23.2,31z M23.2,16c-3.4,0-6.1,2.8-6.1,6.1
		s2.8,6.1,6.1,6.1s6.1-2.8,6.1-6.1S26.6,16,23.2,16z"/>
	<g>
		<linearGradient id="SVGID_3_" gradientUnits="userSpaceOnUse" x1="30.7327" y1="87.6083" x2="112.5201" y2="87.6083">
			<stop  offset="0" style="stop-color:#6293E9"/>
			<stop  offset="0.9904" style="stop-color:#EB33C3"/>
		</linearGradient>
		<path class="st2" d="M110.8,56.5L76.4,80.9c-2.9,2-6.7,2-9.5,0L56,73.1c-0.7-0.5-1.7,0-1.7,0.9V88c0,0.4-0.2,0.7-0.6,0.9
			c-0.1,0-0.2,0.1-0.3,0.1c-0.3,0-0.5-0.1-0.7-0.3l-4.2-5.1l-2.3,0.2c-0.3,0-0.5-0.1-0.7-0.2c-0.2-0.2-0.3-0.4-0.3-0.7V65.9
			c0-0.3-0.2-0.7-0.4-0.9l-12.4-8.9l0,0c-0.7-0.5-1.6,0-1.6,0.8v32.9c0,1.6,0.9,3.1,2.3,4.2l33.7,23.8c0.2,0.1,0.4,0.2,0.6,0.4
			c0.1,0,0.1,0.1,0.2,0.1l0,0c0.1,0.1,0.2,0.1,0.4,0.2c0.1,0,0.1,0.1,0.2,0.1l0.1,0c0.1,0,0.2,0.1,0.3,0.1c0.1,0,0.1,0.1,0.2,0.1
			l0.1,0c0.1,0,0.2,0.1,0.2,0.1l0.1,0c0,0,0,0,0.1,0c0.3,0.1,0.6,0.1,0.9,0.2c0,0,0.1,0,0.1,0l0.1,0c0.2,0,0.5,0.1,0.7,0.1l0.1,0
			c0.1,0,0.3,0,0.4,0c0.2,0,0.3,0,0.5,0c0,0,0.1,0,0.1,0c0.2,0,0.5,0,0.7-0.1l0.1,0c0.1,0,0.1,0,0.2,0c0.3,0,0.5-0.1,0.8-0.2l0.2,0
			c0.2-0.1,0.4-0.1,0.6-0.2c0.1,0,0.1,0,0.2-0.1c0.1-0.1,0.3-0.1,0.4-0.2l0.1,0c0.1,0,0.1-0.1,0.2-0.1c0.3-0.2,0.6-0.3,0.8-0.5
			L110.2,94c0.2-0.1,0.4-0.3,0.5-0.4c0.1,0,0.1-0.1,0.2-0.2c0.1-0.1,0.2-0.2,0.3-0.3l0.1-0.1c0-0.1,0.1-0.1,0.1-0.2
			c0.1-0.1,0.2-0.2,0.2-0.3c0.1-0.1,0.1-0.1,0.1-0.2c0.1-0.1,0.1-0.2,0.2-0.3c0-0.1,0.1-0.1,0.1-0.2c0,0,0-0.1,0.1-0.2
			c0-0.1,0-0.1,0.1-0.2c0-0.1,0.1-0.2,0.1-0.3c0-0.1,0-0.1,0-0.2c0-0.1,0-0.1,0-0.2c0-0.1,0-0.1,0-0.2c0-0.2,0.1-0.3,0.1-0.5l0-0.1
			l0-32.8C112.5,56.5,111.6,56,110.8,56.5C110.8,56.5,110.8,56.5,110.8,56.5z"/>
	</g>
	<path class="st3" d="M109.3,47.7c-0.1-0.2-0.2-0.4-0.3-0.6c0,0,0-0.1-0.1-0.1c-0.1-0.2-0.2-0.3-0.3-0.5c0,0-0.1-0.1-0.1-0.1
		c-0.1-0.1-0.2-0.3-0.4-0.4c0,0-0.1-0.1-0.1-0.1c-0.2-0.2-0.4-0.3-0.6-0.5l-2.2-1.5l-11.4-8.1c-0.1,0.1-0.1,0.2-0.2,0.2l-42,29.7
		v18.4c0,0.4-0.2,0.7-0.6,0.9c-0.1,0-0.2,0.1-0.3,0.1c-0.3,0-0.5-0.1-0.7-0.3l-4.2-5.1l-2.3,0.2c-0.3,0-0.5-0.1-0.7-0.2
		c-0.2-0.2-0.3-0.4-0.3-0.7V61.4c0-0.3,0.1-0.6,0.4-0.7L86,30.2l-12.3-8.7c-1.3-0.9-3-1.4-4.9-1.4c-1.8,0-3.5,0.5-4.9,1.4L30.3,45.3
		c-1.5,1.1-2.3,2.6-2.3,4.2h0V86c0,1.6,0.9,3.1,2.3,4.2l4.3,3.1l0.9,0.7l11.3,8l4.3,3l6.2,4.4l4.8,3.4v0L64,114
		c0.2,0.1,0.4,0.2,0.6,0.4c0.1,0,0.1,0.1,0.2,0.1l0,0c0.1,0.1,0.2,0.1,0.4,0.2c0.1,0,0.1,0.1,0.2,0.1l0.1,0c0.1,0,0.2,0.1,0.3,0.1
		c0.1,0,0.1,0.1,0.2,0.1l0.1,0c0.1,0,0.2,0.1,0.2,0.1l0.1,0c0,0,0,0,0.1,0c0.3,0.1,0.6,0.1,0.9,0.2c0,0,0.1,0,0.1,0l0.1,0
		c0.2,0,0.5,0.1,0.7,0.1l0.1,0c0.1,0,0.3,0,0.4,0c0.2,0,0.3,0,0.5,0c0,0,0.1,0,0.1,0c0.2,0,0.5,0,0.7-0.1l0.1,0c0.1,0,0.1,0,0.2,0
		c0.3,0,0.5-0.1,0.8-0.2l0.2,0c0.2-0.1,0.4-0.1,0.6-0.2c0.1,0,0.1,0,0.2-0.1c0.1-0.1,0.3-0.1,0.4-0.2l0.1,0c0.1,0,0.1-0.1,0.2-0.1
		c0.3-0.2,0.6-0.3,0.8-0.5l33.7-23.8c0.2-0.1,0.4-0.3,0.5-0.4c0.1,0,0.1-0.1,0.2-0.2c0.1-0.1,0.2-0.2,0.3-0.3l0.1-0.1
		c0-0.1,0.1-0.1,0.1-0.2c0.1-0.1,0.2-0.2,0.2-0.3c0.1-0.1,0.1-0.1,0.1-0.2c0.1-0.1,0.1-0.2,0.2-0.3c0-0.1,0.1-0.1,0.1-0.2
		c0,0,0-0.1,0.1-0.2c0-0.1,0-0.1,0.1-0.2c0-0.1,0.1-0.2,0.1-0.3c0-0.1,0-0.1,0-0.2c0-0.1,0-0.1,0-0.2c0-0.1,0-0.1,0-0.2
		c0-0.2,0.1-0.3,0.1-0.5l0-0.1l0-6.9v0l0-2.9l0-12.6v0l0-6.7v0l0-7.5v0h0C109.7,48.9,109.6,48.3,109.3,47.7z"/>
	<path class="st4" d="M16.9,105.7c-1.3,0.9-1.6,2.6-0.7,3.8c0.5,0.8,1.4,1.2,2.3,1.2c0.5,0,1.1-0.2,1.6-0.5L34.7,100v0l6.9,4.9
		l-7.1,5c-1.3,0.9-1.6,2.6-0.7,3.8c0.5,0.8,1.4,1.2,2.3,1.2c0.5,0,1.1-0.2,1.6-0.5l8.7-6.1l6.2,4.4v0l-13.1,9.2
		c-1.3,0.9-1.6,2.6-0.7,3.8c0.5,0.8,1.4,1.2,2.3,1.2c0.5,0,1.1-0.2,1.6-0.5L57.4,116L29.9,96.6L16.9,105.7z"/>
	<path class="st4" d="M128.3,41.9l1.6,1l-14.7,10.3l0-3.7c0-1.8-0.5-3.5-1.3-5l4.8-3.3L119,43l6.2-9.8l-11.3,2.4l1.6,1l-5.5,3.8
		l-13.7-9.7c-0.2-0.1-0.4-0.3-0.6-0.4c-0.4-0.2-1.3-0.6-2.5-0.6c-0.3,0-0.6,0-0.9,0.1c-0.2-1.4-1-2.7-2.2-3.5L76.9,17
		c-2.2-1.6-5.1-2.5-8-2.5c-2.9,0-5.8,0.9-8,2.5L27.1,40.9c-3,2.1-4.7,5.3-4.7,8.7l0,36.5c0,3.4,1.7,6.6,4.7,8.7l2.7,1.9L57.4,116
		l3.5,2.4c0.3,0.2,0.6,0.4,1,0.6c0.1,0.1,0.3,0.2,0.4,0.2c0.2,0.1,0.4,0.2,0.6,0.3c0.1,0.1,0.3,0.1,0.4,0.2l0.1,0
		c0.2,0.1,0.3,0.1,0.5,0.2c0.2,0.1,0.3,0.1,0.4,0.2l0.1,0c0.1,0,0.3,0.1,0.4,0.1c0,0,0,0,0,0l0.1,0c0,0,0.1,0,0.1,0c0,0,0.1,0,0.1,0
		c0.4,0.1,0.8,0.2,1.2,0.3c0.1,0,0.3,0,0.4,0.1l0.1,0c0.4,0,0.7,0.1,1.1,0.1l0.1,0c0.1,0,0.1,0,0.2,0c0.2,0,0.4,0,0.6,0
		c0.3,0,0.6,0,0.8,0c0.1,0,0.1,0,0.2,0c0.3,0,0.7-0.1,1-0.1l0.1,0c0,0,0.1,0,0.1,0c0.1,0,0.3,0,0.4-0.1c0.4-0.1,0.8-0.2,1.1-0.3
		l0.2,0c0,0,0.1,0,0.1,0c0.3-0.1,0.7-0.2,1.1-0.3c0.1-0.1,0.3-0.1,0.4-0.1c0.2-0.1,0.4-0.2,0.6-0.3l0.1,0c0.1,0,0.1-0.1,0.2-0.1
		c0.1-0.1,0.2-0.1,0.4-0.2c0.5-0.3,0.9-0.5,1.3-0.8l33.7-23.8c0.3-0.2,0.7-0.5,1-0.8c0.1-0.1,0.3-0.2,0.4-0.3
		c0.2-0.2,0.3-0.3,0.5-0.5l0.1-0.1c0.1-0.1,0.1-0.1,0.2-0.2c0.1-0.1,0.2-0.3,0.3-0.4c0.1-0.2,0.3-0.3,0.4-0.5
		c0.1-0.2,0.2-0.3,0.3-0.5c0.1-0.2,0.2-0.4,0.3-0.6c0.1-0.2,0.2-0.3,0.2-0.5c0.1-0.1,0.1-0.3,0.2-0.4c0-0.1,0.1-0.2,0.1-0.2
		c0.1-0.2,0.2-0.5,0.3-0.7c0,0,0,0,0,0c0-0.1,0-0.2,0.1-0.2c0-0.2,0.1-0.3,0.1-0.4c0-0.2,0.1-0.4,0.1-0.6c0-0.2,0.1-0.5,0.1-0.7
		c0-0.2,0.1-0.5,0.1-0.7l0-10.7v0l8-5.6l0.4,1.8l6.2-9.8l-11.3,2.4l1.6,1l-4.8,3.3l0-8.8l17.9-12.5l0.4,1.8l6.2-9.8L128.3,41.9z
		 M109.7,49.5l0,7.5v0l0,6.7v0l0,12.6l0,2.9v0l0,6.9l0,0.1c0,0.2,0,0.3-0.1,0.5c0,0.1,0,0.1,0,0.2c0,0,0,0.1,0,0.2
		c0,0.1,0,0.1,0,0.2c0,0.1-0.1,0.2-0.1,0.3c0,0.1,0,0.1-0.1,0.2c0,0.1,0,0.1-0.1,0.2c0,0.1-0.1,0.1-0.1,0.2
		c-0.1,0.1-0.1,0.2-0.2,0.3c0,0.1-0.1,0.2-0.1,0.2c-0.1,0.1-0.1,0.2-0.2,0.3c0,0.1-0.1,0.1-0.1,0.2l-0.1,0.1
		c-0.1,0.1-0.2,0.2-0.3,0.3c-0.1,0.1-0.1,0.1-0.2,0.2c-0.2,0.2-0.4,0.3-0.5,0.4L73.7,114c-0.2,0.2-0.5,0.3-0.8,0.5
		c0,0-0.1,0.1-0.2,0.1l-0.1,0c-0.1,0.1-0.3,0.1-0.4,0.2c-0.1,0-0.1,0-0.2,0.1c-0.2,0.1-0.4,0.2-0.6,0.2l-0.2,0
		c-0.2,0.1-0.5,0.1-0.8,0.2c-0.1,0-0.1,0-0.2,0l-0.1,0c-0.3,0-0.5,0.1-0.7,0.1c0,0-0.1,0-0.1,0c-0.2,0-0.3,0-0.5,0
		c-0.1,0-0.3,0-0.4,0l-0.1,0c-0.3,0-0.5,0-0.7-0.1l-0.1,0c0,0-0.1,0-0.1,0c-0.3,0-0.6-0.1-0.9-0.2c0,0,0,0-0.1,0l-0.1,0
		c-0.1,0-0.2,0-0.2-0.1l-0.1,0c-0.1,0-0.2,0-0.2-0.1c-0.1,0-0.2-0.1-0.3-0.1l-0.1,0c-0.1,0-0.1-0.1-0.2-0.1
		c-0.1-0.1-0.2-0.1-0.4-0.2l0,0c-0.1,0-0.1-0.1-0.2-0.1c-0.2-0.1-0.4-0.2-0.6-0.4l-1.9-1.3v0l-4.8-3.4l-6.2-4.4l-4.3-3l-11.3-8
		l-0.9-0.7l-4.3-3.1c-1.5-1.1-2.3-2.6-2.3-4.2V49.5h0c0-1.6,0.9-3.1,2.3-4.2L64,21.5c1.3-0.9,3-1.4,4.9-1.4c1.8,0,3.5,0.5,4.9,1.4
		L86,30.2L42.8,60.6c-0.2,0.2-0.4,0.4-0.4,0.7v17.5c0,0.3,0.1,0.5,0.3,0.7c0.2,0.2,0.4,0.3,0.7,0.2l2.3-0.2l4.2,5.1
		c0.2,0.2,0.4,0.3,0.7,0.3c0.1,0,0.2,0,0.3-0.1c0.4-0.1,0.6-0.5,0.6-0.9V65.7l42-29.7c0.1-0.1,0.2-0.1,0.2-0.2l11.4,8.1l2.2,1.5
		c0.2,0.1,0.4,0.3,0.6,0.5c0,0,0.1,0.1,0.1,0.1c0.1,0.1,0.3,0.3,0.4,0.4c0,0,0.1,0.1,0.1,0.1c0.1,0.2,0.2,0.3,0.3,0.5
		c0,0,0,0.1,0.1,0.1c0.1,0.2,0.2,0.4,0.3,0.6C109.6,48.3,109.7,48.9,109.7,49.5L109.7,49.5L109.7,49.5z"/>
	<linearGradient id="SVGID_4_" gradientUnits="userSpaceOnUse" x1="22.8569" y1="120.1719" x2="139.7474" y2="39.1204">
		<stop  offset="0" style="stop-color:#6293E9"/>
		<stop  offset="0.9904" style="stop-color:#EB33C3"/>
	</linearGradient>
	<path class="st5" d="M57.4,116l-14.7,10.3c-0.5,0.3-1,0.5-1.6,0.5c-0.9,0-1.7-0.4-2.3-1.2c-0.9-1.3-0.6-3,0.7-3.8l13.1-9.2
		L57.4,116z M118.4,64.4l1.6,1l-4.8,3.3l0,6.7l8-5.6l0.4,1.8l6.2-9.8L118.4,64.4z M29.9,96.6l-13,9.1c-1.3,0.9-1.6,2.6-0.7,3.8
		c0.5,0.8,1.4,1.2,2.3,1.2c0.5,0,1.1-0.2,1.6-0.5L34.7,100L29.9,96.6z M113.9,35.6l1.6,1l-5.5,3.8l0.5,0.4c1.4,1,2.5,2.2,3.3,3.6
		l4.8-3.3L119,43l6.2-9.8L113.9,35.6z M128.3,41.9l1.6,1l-14.7,10.3l0,6.7l17.9-12.5l0.4,1.8l6.2-9.8L128.3,41.9z M41.5,104.8
		l-7.1,5c-1.3,0.9-1.6,2.6-0.7,3.8c0.5,0.8,1.4,1.2,2.3,1.2c0.5,0,1.1-0.2,1.6-0.5l8.7-6.1L41.5,104.8z"/>
</g>
</svg>
