<svg xmlns="http://www.w3.org/2000/svg" xmlns:xlink="http://www.w3.org/1999/xlink" viewBox="0 0 140 140"><defs><style>.cls-1{fill:none;}.cls-2{opacity:0.4;}.cls-3{clip-path:url(#clip-path);}.cls-4{fill:#f9c487;}.cls-5{fill:#f9c387;}.cls-6{fill:#f9c287;}.cls-7{fill:#f9c187;}.cls-8{fill:#f9c087;}.cls-9{fill:#f9bf87;}.cls-10{fill:#f9be87;}.cls-11{fill:#f8bd86;}.cls-12{fill:#f8bc86;}.cls-13{fill:#f8bb86;}.cls-14{fill:#f8ba86;}.cls-15{fill:#f8b986;}.cls-16{fill:#f8b886;}.cls-17{fill:#f8b786;}.cls-18{fill:#f8b686;}.cls-19{fill:#f8b586;}.cls-20{fill:#f8b486;}.cls-21{fill:#f8b386;}.cls-22{fill:#f7b185;}.cls-23{fill:#f7b085;}.cls-24{fill:#f7af85;}.cls-25{fill:#f7ae85;}.cls-26{fill:#f7ad85;}.cls-27{fill:#f7ac85;}.cls-28{fill:#f7ab85;}.cls-29{fill:#f7aa85;}.cls-30{fill:#f7a985;}.cls-31{fill:#f7a885;}.cls-32{fill:#f7a785;}.cls-33{fill:#f6a684;}.cls-34{fill:#f6a584;}.cls-35{fill:#f6a484;}.cls-36{fill:#f6a384;}.cls-37{fill:#f6a284;}.cls-38{fill:#f6a184;}.cls-39{fill:#f6a084;}.cls-40{fill:#f69f84;}.cls-41{fill:#f69e84;}.cls-42{fill:#f69d84;}.cls-43{fill:#f69c84;}.cls-44{fill:#f59b83;}.cls-45{fill:#f59a83;}.cls-46{fill:#f59983;}.cls-47{fill:#f59883;}.cls-48{fill:#f48a82;}.cls-49{fill:#f48982;}.cls-50{fill:#f48882;}.cls-51{fill:#f48782;}.cls-52{fill:#f38681;}.cls-53{fill:#f38581;}.cls-54{fill:#f38481;}.cls-55{fill:#f38381;}.cls-56{fill:#f38281;}.cls-57{fill:#f38181;}.cls-58{fill:#f48c82;}.cls-59{fill:#f48b82;}.cls-60{fill:#fce38a;}.cls-61{fill:#fce28a;}.cls-62{fill:#fce18a;}.cls-63{fill:#fce08a;}.cls-64{fill:#fcdf8a;}.cls-65{fill:#fcde8a;}.cls-66{fill:#fbdd89;}.cls-67{fill:#fbdc89;}.cls-68{fill:#fbdb89;}.cls-69{clip-path:url(#clip-path-2);}.cls-70{fill:#f59783;}.cls-71{fill:#f59683;}.cls-72{fill:#f59583;}.cls-73{fill:#f59483;}.cls-74{fill:#f59383;}.cls-75{fill:#f59283;}.cls-76{fill:#f49182;}.cls-77{fill:#f49082;}.cls-78{fill:#f48f82;}.cls-79{fill:#f48e82;}.cls-80{fill:#f48d82;}.cls-81{fill:#fbda89;}.cls-82{fill:#fbd989;}.cls-83{fill:#fbd889;}.cls-84{fill:#fbd789;}.cls-85{fill:#fbd689;}.cls-86{fill:#fbd589;}.cls-87{fill:#fbd489;}.cls-88{fill:#fbd389;}.cls-89{fill:#fad288;}.cls-90{fill:#fad188;}.cls-91{fill:#fad088;}.cls-92{fill:#22233a;}</style><clipPath id="clip-path"><path class="cls-1" d="M6.59,123.12a2.2,2.2,0,0,1-2.2-2.21v-1.7H2.68a2.21,2.21,0,0,1,0-4.41H4.39v-1.7a2.2,2.2,0,0,1,4.4,0v1.7H10.5a2.21,2.21,0,0,1,0,4.41H8.79v1.7A2.2,2.2,0,0,1,6.59,123.12ZM130.75,35.28a8.77,8.77,0,1,1,8.77-8.77A8.78,8.78,0,0,1,130.75,35.28Zm0-14.82a6.05,6.05,0,1,0,6.05,6.05A6.06,6.06,0,0,0,130.75,20.46Zm-70,103.73a4.22,4.22,0,0,1-2.24-.64l-12.85-8.06a.37.37,0,0,1,.2-.69H89.9a4.19,4.19,0,0,1,2.23.64L105,123.5a.37.37,0,0,1-.2.69Z"/></clipPath><clipPath id="clip-path-2"><path class="cls-1" d="M49.5,101.44l-3-9.12a.37.37,0,0,0-.69,0h0a.39.39,0,0,1-.67,0,37.24,37.24,0,0,1-5.4-19.41c0-2.5-5.45-2.86-5.45,0a42.59,42.59,0,0,0,6.89,23.33.37.37,0,0,1-.19.56l-.58.19a.37.37,0,0,0-.05.69l3.08,1.52a2.6,2.6,0,0,0,.75.36L49,101.89A.37.37,0,0,0,49.5,101.44ZM91.16,35.56l.39-.42a.38.38,0,0,0-.29-.64l-9.58.44a.37.37,0,0,0-.24.64l7,6.56a.37.37,0,0,0,.63-.29v0a.38.38,0,0,1,.56-.35A37.59,37.59,0,0,1,106.4,86.27a.37.37,0,0,0,.22.47L111,88.32a.38.38,0,0,0,.49-.23A43,43,0,0,0,91.25,36.14.37.37,0,0,1,91.16,35.56Z"/></clipPath></defs><g id="Capa_2" data-name="Capa 2"><g id="Layer_1" data-name="Layer 1"><rect class="cls-1" width="140" height="140"/><g class="cls-2"><g class="cls-3"><rect class="cls-4" x="45.29" y="114.8" width="0.16" height="9.39"/><rect class="cls-5" x="45.44" y="114.8" width="1.41" height="9.39"/><rect class="cls-6" x="46.85" y="114.8" width="1.41" height="9.39"/><rect class="cls-7" x="48.25" y="114.8" width="1.41" height="9.39"/><rect class="cls-8" x="49.66" y="114.8" width="1.41" height="9.39"/><rect class="cls-9" x="51.07" y="114.8" width="1.41" height="9.39"/><rect class="cls-10" x="52.47" y="114.8" width="1.41" height="9.39"/><rect class="cls-11" x="53.88" y="114.8" width="1.41" height="9.39"/><rect class="cls-12" x="55.28" y="114.8" width="1.41" height="9.39"/><rect class="cls-13" x="56.69" y="114.8" width="1.41" height="9.39"/><rect class="cls-14" x="58.09" y="114.8" width="1.41" height="9.39"/><rect class="cls-15" x="59.5" y="114.8" width="1.41" height="9.39"/><rect class="cls-16" x="60.9" y="114.8" width="1.41" height="9.39"/><rect class="cls-17" x="62.31" y="114.8" width="1.41" height="9.39"/><rect class="cls-18" x="63.71" y="114.8" width="1.41" height="9.39"/><rect class="cls-19" x="65.12" y="114.8" width="1.41" height="9.39"/><rect class="cls-20" x="66.52" y="114.8" width="1.41" height="9.39"/><rect class="cls-21" x="67.93" y="114.8" width="1.41" height="9.39"/><rect class="cls-22" x="69.33" y="114.8" width="1.41" height="9.39"/><rect class="cls-23" x="70.74" y="114.8" width="1.41" height="9.39"/><rect class="cls-24" x="72.14" y="114.8" width="1.41" height="9.39"/><rect class="cls-25" x="73.55" y="114.8" width="1.41" height="9.39"/><rect class="cls-26" x="74.95" y="114.8" width="1.41" height="9.39"/><rect class="cls-27" x="76.36" y="114.8" width="1.41" height="9.39"/><rect class="cls-28" x="77.76" y="114.8" width="1.41" height="9.39"/><rect class="cls-29" x="79.17" y="114.8" width="1.41" height="9.39"/><rect class="cls-30" x="80.57" y="114.8" width="1.41" height="9.39"/><rect class="cls-31" x="81.98" y="114.8" width="1.41" height="9.39"/><rect class="cls-32" x="83.38" y="114.8" width="1.41" height="9.39"/><rect class="cls-33" x="84.79" y="114.8" width="1.41" height="9.39"/><rect class="cls-34" x="86.19" y="114.8" width="1.41" height="9.39"/><rect class="cls-35" x="87.6" y="114.8" width="1.41" height="9.39"/><rect class="cls-36" x="89" y="114.8" width="1.41" height="9.39"/><rect class="cls-37" x="90.41" y="114.8" width="1.41" height="9.39"/><rect class="cls-38" x="91.81" y="114.8" width="1.41" height="9.39"/><rect class="cls-39" x="93.22" y="114.8" width="1.41" height="9.39"/><rect class="cls-40" x="94.62" y="114.8" width="1.41" height="9.39"/><rect class="cls-41" x="96.03" y="114.8" width="1.41" height="9.39"/><rect class="cls-42" x="97.43" y="114.8" width="1.41" height="9.39"/><rect class="cls-43" x="98.84" y="114.8" width="1.41" height="9.39"/><rect class="cls-44" x="100.24" y="114.8" width="1.41" height="9.39"/><rect class="cls-45" x="101.65" y="114.8" width="1.41" height="9.39"/><rect class="cls-46" x="103.05" y="114.8" width="1.41" height="9.39"/><rect class="cls-47" x="104.46" y="114.8" width="0.85" height="9.39"/><rect class="cls-48" x="124.7" y="20.46" width="0.83" height="12.09"/><rect class="cls-49" x="125.54" y="20.46" width="1.41" height="12.09"/><rect class="cls-50" x="126.94" y="20.46" width="1.41" height="12.09"/><rect class="cls-51" x="128.35" y="20.46" width="1.41" height="12.09"/><rect class="cls-52" x="129.75" y="20.46" width="1.41" height="12.09"/><rect class="cls-53" x="131.16" y="20.46" width="1.41" height="12.09"/><rect class="cls-54" x="132.56" y="20.46" width="1.41" height="12.09"/><rect class="cls-55" x="133.97" y="20.46" width="1.41" height="12.09"/><rect class="cls-56" x="135.37" y="20.46" width="1.41" height="12.09"/><rect class="cls-57" x="136.78" y="20.46" width="0.02" height="12.09"/><rect class="cls-58" x="121.98" y="17.74" width="0.74" height="17.54"/><rect class="cls-59" x="122.73" y="17.74" width="1.41" height="17.54"/><rect class="cls-48" x="124.13" y="17.74" width="1.41" height="17.54"/><rect class="cls-49" x="125.54" y="17.74" width="1.41" height="17.54"/><rect class="cls-50" x="126.94" y="17.74" width="1.41" height="17.54"/><rect class="cls-51" x="128.35" y="17.74" width="1.41" height="17.54"/><rect class="cls-52" x="129.75" y="17.74" width="1.41" height="17.54"/><rect class="cls-53" x="131.16" y="17.74" width="1.41" height="17.54"/><rect class="cls-54" x="132.56" y="17.74" width="1.41" height="17.54"/><rect class="cls-55" x="133.97" y="17.74" width="1.41" height="17.54"/><rect class="cls-56" x="135.37" y="17.74" width="1.41" height="17.54"/><rect class="cls-57" x="136.78" y="17.74" width="1.41" height="17.54"/><rect class="cls-57" x="138.18" y="17.74" width="1.34" height="17.54"/><path class="cls-60" d="M.48,110.9v0Z"/><rect class="cls-60" x="0.48" y="110.9" width="1.41" height="12.22"/><rect class="cls-61" x="1.89" y="110.9" width="1.41" height="12.22"/><rect class="cls-62" x="3.29" y="110.9" width="1.41" height="12.22"/><rect class="cls-63" x="4.7" y="110.9" width="1.41" height="12.22"/><rect class="cls-64" x="6.1" y="110.9" width="1.41" height="12.22"/><rect class="cls-65" x="7.51" y="110.9" width="1.41" height="12.22"/><rect class="cls-66" x="8.91" y="110.9" width="1.41" height="12.22"/><rect class="cls-67" x="10.32" y="110.9" width="1.41" height="12.22"/><rect class="cls-68" x="11.72" y="110.9" width="0.98" height="12.22"/></g></g><g class="cls-69"><rect class="cls-31" x="81.2" y="34.49" width="0.56" height="53.91"/><rect class="cls-32" x="81.76" y="34.49" width="0.8" height="53.91"/><rect class="cls-33" x="82.56" y="34.49" width="0.8" height="53.91"/><rect class="cls-34" x="83.37" y="34.49" width="0.8" height="53.91"/><rect class="cls-35" x="84.17" y="34.49" width="0.8" height="53.91"/><rect class="cls-36" x="84.98" y="34.49" width="0.8" height="53.91"/><rect class="cls-37" x="85.78" y="34.49" width="0.8" height="53.91"/><rect class="cls-38" x="86.59" y="34.49" width="0.8" height="53.91"/><rect class="cls-39" x="87.39" y="34.49" width="0.8" height="53.91"/><rect class="cls-40" x="88.2" y="34.49" width="0.8" height="53.91"/><rect class="cls-41" x="89" y="34.49" width="0.8" height="53.91"/><rect class="cls-42" x="89.8" y="34.49" width="0.8" height="53.91"/><rect class="cls-43" x="90.61" y="34.49" width="0.8" height="53.91"/><rect class="cls-44" x="91.41" y="34.49" width="0.8" height="53.91"/><rect class="cls-45" x="92.22" y="34.49" width="0.8" height="53.91"/><rect class="cls-46" x="93.02" y="34.49" width="0.8" height="53.91"/><rect class="cls-47" x="93.83" y="34.49" width="0.8" height="53.91"/><rect class="cls-70" x="94.63" y="34.49" width="0.8" height="53.91"/><rect class="cls-71" x="95.43" y="34.49" width="0.8" height="53.91"/><rect class="cls-72" x="96.24" y="34.49" width="0.8" height="53.91"/><rect class="cls-73" x="97.04" y="34.49" width="0.8" height="53.91"/><rect class="cls-74" x="97.85" y="34.49" width="0.8" height="53.91"/><rect class="cls-75" x="98.65" y="34.49" width="0.8" height="53.91"/><rect class="cls-76" x="99.46" y="34.49" width="0.8" height="53.91"/><rect class="cls-77" x="100.26" y="34.49" width="0.8" height="53.91"/><rect class="cls-78" x="101.06" y="34.49" width="0.8" height="53.91"/><rect class="cls-79" x="101.87" y="34.49" width="0.8" height="53.91"/><rect class="cls-80" x="102.67" y="34.49" width="0.8" height="53.91"/><rect class="cls-58" x="103.48" y="34.49" width="0.8" height="53.91"/><rect class="cls-59" x="104.28" y="34.49" width="0.8" height="53.91"/><rect class="cls-48" x="105.09" y="34.49" width="0.8" height="53.91"/><rect class="cls-49" x="105.89" y="34.49" width="0.8" height="53.91"/><rect class="cls-50" x="106.7" y="34.49" width="0.8" height="53.91"/><rect class="cls-51" x="107.5" y="34.49" width="0.8" height="53.91"/><rect class="cls-52" x="108.3" y="34.49" width="0.8" height="53.91"/><rect class="cls-53" x="109.11" y="34.49" width="0.8" height="53.91"/><rect class="cls-54" x="109.91" y="34.49" width="0.8" height="53.91"/><rect class="cls-55" x="110.72" y="34.49" width="0.8" height="53.91"/><rect class="cls-56" x="111.52" y="34.49" width="0.8" height="53.91"/><rect class="cls-57" x="112.33" y="34.49" width="0.8" height="53.91"/><rect class="cls-57" x="113.13" y="34.49" width="0.77" height="53.91"/><path class="cls-60" d="M34.3,70v0Z"/><rect class="cls-60" x="34.3" y="70.04" width="0.8" height="32"/><rect class="cls-61" x="35.11" y="70.04" width="0.8" height="32"/><rect class="cls-62" x="35.91" y="70.04" width="0.8" height="32"/><rect class="cls-63" x="36.72" y="70.04" width="0.8" height="32"/><rect class="cls-64" x="37.52" y="70.04" width="0.8" height="32"/><rect class="cls-65" x="38.33" y="70.04" width="0.8" height="32"/><rect class="cls-66" x="39.13" y="70.04" width="0.8" height="32"/><rect class="cls-67" x="39.93" y="70.04" width="0.8" height="32"/><rect class="cls-68" x="40.74" y="70.04" width="0.8" height="32"/><rect class="cls-81" x="41.54" y="70.04" width="0.8" height="32"/><rect class="cls-82" x="42.35" y="70.04" width="0.8" height="32"/><rect class="cls-83" x="43.15" y="70.04" width="0.8" height="32"/><rect class="cls-84" x="43.96" y="70.04" width="0.8" height="32"/><rect class="cls-85" x="44.76" y="70.04" width="0.8" height="32"/><rect class="cls-86" x="45.56" y="70.04" width="0.8" height="32"/><rect class="cls-87" x="46.37" y="70.04" width="0.8" height="32"/><rect class="cls-88" x="47.17" y="70.04" width="0.8" height="32"/><rect class="cls-89" x="47.98" y="70.04" width="0.8" height="32"/><rect class="cls-90" x="48.78" y="70.04" width="0.8" height="32"/><rect class="cls-91" x="49.59" y="70.04" width="0.02" height="32"/></g><path class="cls-92" d="M36.79,60.11a1.16,1.16,0,1,0,0,2.31h1.35v1.35a1.15,1.15,0,0,0,2.3,0V62.42h5.19v1.35a1.16,1.16,0,0,0,2.31,0V62.42h5.19v1.35a1.16,1.16,0,0,0,2.31,0V62.42h1.35a1.15,1.15,0,0,0,1.15-1.15h0a1.15,1.15,0,0,0-1.15-1.16H55.44V54.92h1.35a1.16,1.16,0,0,0,0-2.31H55.44V47.42h1.35a1.15,1.15,0,0,0,0-2.3H55.44V43.77a1.16,1.16,0,1,0-2.31,0v1.35H47.94V43.77a1.16,1.16,0,1,0-2.31,0v1.35H40.44V43.77a1.15,1.15,0,0,0-1.15-1.16h0a1.15,1.15,0,0,0-1.15,1.16v1.35H36.79a1.15,1.15,0,1,0,0,2.3h1.35v5.19H36.79a1.16,1.16,0,1,0,0,2.31h1.35v5.19ZM47.94,47.42h5.19v5.19H47.94Zm0,7.5h5.19v5.19H47.94Zm-7.5-7.5h5.19v5.19H40.44Zm0,7.5h5.19v5.19H40.44Z"/><path class="cls-92" d="M61.73,74.13A7.35,7.35,0,0,0,69,66.75V65.56h.86a7.35,7.35,0,0,0,7.3-7.38V19.58a7.35,7.35,0,0,0-7.3-7.38H40a7.35,7.35,0,0,0-7.3,7.38v1.19h-.86a7.34,7.34,0,0,0-7.3,7.37V66.75a7.35,7.35,0,0,0,7.3,7.38ZM38.15,19.58A1.91,1.91,0,0,1,40,17.64H69.89a1.9,1.9,0,0,1,1.86,1.94v38.6a1.9,1.9,0,0,1-1.86,1.94H69V37.65a5.45,5.45,0,0,0-1.65-3.9L55.6,22.3a5.48,5.48,0,0,0-3.8-1.53H38.15Zm20.78,14.2H56.29a.27.27,0,0,1-.27-.27V30.94a.27.27,0,0,1,.46-.19l2.64,2.56A.28.28,0,0,1,58.93,33.78ZM30,66.75V28.14a1.9,1.9,0,0,1,1.86-1.93H49.48a1.09,1.09,0,0,1,1.09,1.09v9.2a2.72,2.72,0,0,0,2.72,2.72H62.5a1.09,1.09,0,0,1,1.09,1.09V66.75a1.91,1.91,0,0,1-1.86,1.94H31.85A1.9,1.9,0,0,1,30,66.75Z"/><path class="cls-92" d="M118.62,86.12a7.6,7.6,0,0,0-5.63-2.4H65.82a7.34,7.34,0,0,0-7.16,5.72l-4.18,18.28H33.75a4,4,0,0,0-3.85,2.74,3.86,3.86,0,0,0,1.65,4.43l18.58,11.64a9.74,9.74,0,0,0,3,1.23,3.79,3.79,0,0,0,1.3.24h52a7.31,7.31,0,0,0,7.16-5.71h0l6.76-29.58A7.34,7.34,0,0,0,118.62,86.12Zm-31,2.2A1.41,1.41,0,0,1,89,87.17a1,1,0,0,1,1,1.15,1.37,1.37,0,0,1-.07.24s0,0,0,0a1.74,1.74,0,0,1-.1.19h0a1.4,1.4,0,0,1-.32.37,1.33,1.33,0,0,1-.83.31,1,1,0,0,1-.74-.31,1.23,1.23,0,0,1-.21-.37h0a.63.63,0,0,1,0-.19s0,0,0,0A2.09,2.09,0,0,1,87.61,88.32Zm12.1,34.24H55.26a4.21,4.21,0,0,1-2.24-.65l-13.16-8.24a.27.27,0,0,1,.14-.5H84.45a4.22,4.22,0,0,1,2.24.64l13.16,8.24A.28.28,0,0,1,99.71,122.56Zm15.34-31.07-6.39,28a1.07,1.07,0,0,1-1.62.67l-17.46-11a9.6,9.6,0,0,0-5.13-1.48H60.4a.27.27,0,0,1-.26-.33L64,90.65a1.9,1.9,0,0,1,1.86-1.48H82.44a.56.56,0,0,1,.54.61,2.94,2.94,0,0,0,.31,1.71,2.83,2.83,0,0,0,2.46,1.43h5a3.17,3.17,0,0,0,3.09-2.46L94,89.8a.8.8,0,0,1,.79-.63h18.38a1.89,1.89,0,0,1,1.49.71A1.85,1.85,0,0,1,115.05,91.49Z"/></g></g></svg>