<?xml version="1.0" encoding="UTF-8"?>
<svg xmlns="http://www.w3.org/2000/svg" xmlns:xlink="http://www.w3.org/1999/xlink" id="Capa_2" viewBox="0 0 140.02 140">
  <defs>
    <style>.cls-1{fill:#22233a;}.cls-2{fill:url(#Degradado_sin_nombre_2-2);}.cls-3{fill:url(#Degradado_sin_nombre_2);opacity:.2;}</style>
    <linearGradient id="Degradado_sin_nombre_2" x1="0" y1="70" x2="140.02" y2="70" gradientTransform="matrix(1, 0, 0, 1, 0, 0)" gradientUnits="userSpaceOnUse">
      <stop offset="0" stop-color="#56cb1c"></stop>
      <stop offset="1" stop-color="#e5e500"></stop>
    </linearGradient>
    <linearGradient id="Degradado_sin_nombre_2-2" x1="16.22" y1="38.06" x2="107.24" y2="38.06" xlink:href="#Degradado_sin_nombre_2"></linearGradient>
  </defs>
  <g id="Capa_1-2">
    <g>
      <path class="cls-3" d="M136.95,6.94h-2.15v-2.15c0-1.54-1.12-2.91-2.65-3.06-1.76-.17-3.23,1.21-3.23,2.93v2.28h-2.15c-1.54,0-2.91,1.12-3.06,2.65-.17,1.76,1.21,3.23,2.93,3.23h2.28v2.15c0,1.54,1.12,2.91,2.65,3.06,1.76,.17,3.23-1.21,3.23-2.93v-2.28h2.28c1.72,0,3.1-1.48,2.93-3.23-.15-1.53-1.52-2.65-3.06-2.65ZM9.47,134.65c3.6,0,6.44-3.27,5.71-7-.44-2.27-2.27-4.1-4.54-4.54-3.72-.73-7,2.12-7,5.71,0,3.21,2.61,5.83,5.83,5.83m0,3.64c-5.35,0-9.67-4.44-9.46-9.84,.19-4.87,4.22-8.91,9.09-9.09,5.4-.2,9.84,4.11,9.84,9.46,0,5.23-4.24,9.47-9.47,9.47h0ZM115.36,45.04c-1.13-.73-2.48-1.16-3.93-1.16h-8.95c-.76,0-1.45,.47-1.71,1.2-.49,1.42-1.85,2.44-3.44,2.44h-3.64c-1.58,0-2.92-1-3.42-2.41-.65-.24-1.22-.65-1.64-1.19l-.08-.04h-10.4c-3.22,0-5.82,2.61-5.82,5.82V127.63c0,1.45,.43,2.8,1.16,3.93,1.14,.73,2.48,1.16,3.93,1.16h31.82c4.02,0,7.28-3.26,7.28-7.28V48.97c0-1.45-.43-2.8-1.16-3.93Zm-35.13,45.12h0c-.81,0-1.47-.66-1.47-1.47v-26.01c0-.73,.5-1.41,1.22-1.53,.92-.15,1.71,.56,1.71,1.45v26.09c0,.81-.66,1.47-1.47,1.47Zm6.55,0c-.81,0-1.47-.66-1.47-1.47s.66-1.47,1.47-1.47,1.47,.66,1.47,1.47-.66,1.47-1.47,1.47Zm1.47-7.34c0,.81-.66,1.47-1.47,1.47h0c-.81,0-1.47-.66-1.47-1.47v-20.14c0-.73,.5-1.41,1.22-1.53,.92-.15,1.71,.56,1.71,1.45v20.22Zm3.62-20.22c0-.89,.79-1.6,1.71-1.45,.72,.12,1.22,.8,1.22,1.53v20.14c0,.81-.66,1.47-1.47,1.47h0c-.81,0-1.47-.66-1.47-1.47v-20.22Zm1.47,24.62c.81,0,1.47,.66,1.47,1.47s-.66,1.47-1.47,1.47-1.47-.66-1.47-1.47,.66-1.47,1.47-1.47Zm-.58,36.87c-1.53-.24-2.78-1.48-3.01-3.01-.38-2.46,1.7-4.55,4.16-4.18,1.54,.23,2.8,1.49,3.03,3.03,.37,2.47-1.72,4.54-4.18,4.16Zm7.13-33.93c-.81,0-1.47-.66-1.47-1.47s.66-1.47,1.47-1.47,1.47,.66,1.47,1.47-.66,1.47-1.47,1.47Zm0-5.87h0c-.81,0-1.47-.66-1.47-1.47v-20.14c0-.73,.5-1.41,1.22-1.53,.92-.15,1.71,.56,1.71,1.45v20.22c0,.81-.66,1.47-1.47,1.47Zm6.55,5.87h0c-.81,0-1.47-.66-1.47-1.47v-26.01c0-.73,.5-1.41,1.22-1.53,.92-.15,1.71,.56,1.71,1.45v26.09c0,.81-.66,1.47-1.47,1.47Z"></path>
      <path class="cls-2" d="M92.27,1.47c0-.81,.66-1.47,1.47-1.47h3.21c5.69,0,10.3,4.61,10.3,10.3v3.21c0,.81-.66,1.47-1.47,1.47s-1.47-.66-1.47-1.47v-3.29c0-4.02-3.26-7.28-7.28-7.28h-3.29c-.81,0-1.47-.66-1.47-1.47Zm-.47,32.95V16.34c0-.81-.66-1.47-1.47-1.47s-1.47,.66-1.47,1.47v18.08h2.94Zm-8.17,0V16.34c0-.81-.66-1.47-1.47-1.47s-1.47,.66-1.47,1.47v18.08h2.94ZM49.47,14.87c-.81,0-1.47,.66-1.47,1.47V56.14c0,.81,.66,1.47,1.47,1.47h0c.81,0,1.47-.66,1.47-1.47V16.34c0-.81-.66-1.47-1.47-1.47Zm-8.17,0c-.81,0-1.47,.66-1.47,1.47V59.78c0,.81,.66,1.47,1.47,1.47h0c.81,0,1.47-.66,1.47-1.47V16.34c0-.81-.66-1.47-1.47-1.47Zm-8.17,0c-.81,0-1.47,.66-1.47,1.47V56.14c0,.81,.66,1.47,1.47,1.47h0c.81,0,1.47-.66,1.47-1.47V16.34c0-.81-.66-1.47-1.47-1.47Zm42.32,19.7V16.34c0-.81-.66-1.47-1.47-1.47s-1.47,.66-1.47,1.47v18.94c.94-.34,1.92-.58,2.94-.72ZM57.64,14.87c-.81,0-1.47,.66-1.47,1.47V56.14c0,.81,.66,1.47,1.47,1.47h0c.81,0,1.47-.66,1.47-1.47V16.34c0-.81-.66-1.47-1.47-1.47ZM29.72,0h-3.21c-5.69,0-10.3,4.61-10.3,10.3v3.21c0,.81,.66,1.47,1.47,1.47h0c.81,0,1.47-.66,1.47-1.47v-3.29c0-4.02,3.26-7.28,7.28-7.28h3.29c.81,0,1.47-.66,1.47-1.47s-.66-1.47-1.47-1.47Zm37.56,38.54V16.34c0-.81-.66-1.47-1.47-1.47s-1.47,.66-1.47,1.47v26.27c.74-1.52,1.73-2.9,2.94-4.07ZM29.72,73.18h-3.29c-4.02,0-7.28-3.26-7.28-7.28v-3.29c0-.81-.66-1.47-1.47-1.47h0c-.81,0-1.47,.66-1.47,1.47v3.21c0,5.69,4.61,10.3,10.3,10.3h3.21c.81,0,1.47-.66,1.47-1.47s-.66-1.47-1.47-1.47Z"></path>
      <g>
        <path class="cls-1" d="M93.33,90.16c.81,0,1.47-.66,1.47-1.47s-.66-1.47-1.47-1.47-1.47,.66-1.47,1.47,.66,1.47,1.47,1.47Z"></path>
        <path class="cls-1" d="M86.78,61.13c-.81,0-1.47,.66-1.47,1.47v20.22c0,.81,.66,1.47,1.47,1.47h0c.81,0,1.47-.66,1.47-1.47v-20.22c0-.81-.66-1.47-1.47-1.47Z"></path>
        <path class="cls-1" d="M86.78,87.22c-.81,0-1.47,.66-1.47,1.47s.66,1.47,1.47,1.47,1.47-.66,1.47-1.47-.66-1.47-1.47-1.47Z"></path>
        <path class="cls-1" d="M80.23,61.13c-.81,0-1.47,.66-1.47,1.47v26.09c0,.81,.66,1.47,1.47,1.47h0c.81,0,1.47-.66,1.47-1.47v-26.09c0-.81-.66-1.47-1.47-1.47Z"></path>
        <path class="cls-1" d="M93.33,84.29h0c.81,0,1.47-.66,1.47-1.47v-20.22c0-.81-.66-1.47-1.47-1.47s-1.47,.66-1.47,1.47v20.22c0,.81,.66,1.47,1.47,1.47Z"></path>
        <path class="cls-1" d="M106.44,61.13c-.81,0-1.47,.66-1.47,1.47v26.09c0,.81,.66,1.47,1.47,1.47h0c.81,0,1.47-.66,1.47-1.47v-26.09c0-.81-.66-1.47-1.47-1.47Z"></path>
        <path class="cls-1" d="M109.24,34.42h-31.82c-8.04,0-14.56,6.52-14.56,14.56V125.44c0,8.04,6.52,14.56,14.56,14.56h31.82c8.04,0,14.56-6.52,14.56-14.56V48.97c0-8.04-6.52-14.56-14.56-14.56Zm-15.91,3.64c1,0,1.82,.82,1.82,1.82s-.82,1.82-1.82,1.82-1.82-.82-1.82-1.82,.82-1.82,1.82-1.82Zm23.19,87.39c0,4.02-3.26,7.28-7.28,7.28h-31.82c-4.02,0-7.28-3.26-7.28-7.28V48.97c0-4.02,3.26-7.28,7.28-7.28h8.95c.76,0,1.45,.47,1.7,1.2,.49,1.42,1.85,2.44,3.44,2.44h3.64c1.59,0,2.94-1.02,3.44-2.44,.25-.72,.94-1.2,1.7-1.2h8.95c4.02,0,7.28,3.26,7.28,7.28V125.44Z"></path>
        <path class="cls-1" d="M99.88,61.13c-.81,0-1.47,.66-1.47,1.47v20.22c0,.81,.66,1.47,1.47,1.47h0c.81,0,1.47-.66,1.47-1.47v-20.22c0-.81-.66-1.47-1.47-1.47Z"></path>
        <circle class="cls-1" cx="93.33" cy="120.5" r="3.64"></circle>
        <path class="cls-1" d="M99.88,87.22c-.81,0-1.47,.66-1.47,1.47s.66,1.47,1.47,1.47,1.47-.66,1.47-1.47-.66-1.47-1.47-1.47Z"></path>
      </g>
    </g>
  </g>
</svg>
