<svg xmlns="http://www.w3.org/2000/svg" xmlns:xlink="http://www.w3.org/1999/xlink" viewBox="0 0 299.55 263.64"><defs><style>.cls-1{fill:url(#Degradado_sin_nombre_2);}.cls-2{opacity:0.5;fill:url(#Degradado_sin_nombre_2-2);}.cls-3{fill:url(#Degradado_sin_nombre_2-3);}.cls-4{fill:#22233a;}.cls-5{fill:#f1f1f1;}</style><linearGradient id="Degradado_sin_nombre_2" x1="-2005.13" y1="143.33" x2="-1752.42" y2="143.33" gradientTransform="matrix(-1, 0, 0, 1, -1705.58, 0)" gradientUnits="userSpaceOnUse"><stop offset="0.02" stop-color="#68c59f"/><stop offset="0.37" stop-color="#4b87d1"/><stop offset="1" stop-color="#895bc5"/></linearGradient><linearGradient id="Degradado_sin_nombre_2-2" x1="-1793.56" y1="79.19" x2="-1716.76" y2="79.19" xlink:href="#Degradado_sin_nombre_2"/><linearGradient id="Degradado_sin_nombre_2-3" x1="-1796.91" y1="62.94" x2="-1716.76" y2="62.94" xlink:href="#Degradado_sin_nombre_2"/></defs><g id="Capa_2" data-name="Capa 2"><g id="Layer_1" data-name="Layer 1"><path class="cls-1" d="M299.55,40.53A4.52,4.52,0,0,0,295,36h-3.51v-3.5a4.52,4.52,0,1,0-9,0V36H279a4.53,4.53,0,0,0,0,9.05h3.51v3.5a4.52,4.52,0,0,0,9,0v-3.5H295A4.52,4.52,0,0,0,299.55,40.53ZM61.38,235.17a9,9,0,1,0,8.95,9,9,9,0,0,0-8.95-9m0-5.59a14.55,14.55,0,1,1-14.55,14.55,14.54,14.54,0,0,1,14.55-14.55Z"/><path class="cls-2" d="M47.9,73.9a4.36,4.36,0,0,0,2.41-.67S78.77,53,86.21,47.73a1.12,1.12,0,0,1,1.76.92V85.94l-34.3,24.25a4.7,4.7,0,0,1-4.82,0L11.61,83.87a1.2,1.2,0,0,1-.43-.44V49L45.5,73.24A4.39,4.39,0,0,0,47.9,73.9Z"/><path class="cls-3" d="M88,48.65a1.12,1.12,0,0,0-1.76-.92c-7.44,5.3-35.9,25.5-35.9,25.5a4.68,4.68,0,0,1-4.81,0L11.18,49V43.11a1.14,1.14,0,0,1,.43-.43L48.84,16.35a4.39,4.39,0,0,1,2.41-.66,4.34,4.34,0,0,1,2.41.66L90.9,42.67a1.32,1.32,0,0,1,.43.45V83.43a1.45,1.45,0,0,1-.43.44L53.67,110.19,88,85.94Z"/><path class="cls-4" d="M0,43.11V83.43A11.7,11.7,0,0,0,5.15,93l37.24,26.32a15.81,15.81,0,0,0,17.73,0L97.35,93a11.69,11.69,0,0,0,5.16-9.57V43.11a11.67,11.67,0,0,0-5.16-9.56L60.12,7.22a15.85,15.85,0,0,0-17.73,0L5.15,33.55A11.69,11.69,0,0,0,0,43.11ZM11.18,83.43V43.11a1.14,1.14,0,0,1,.43-.43L48.84,16.35a4.39,4.39,0,0,1,2.41-.66,4.34,4.34,0,0,1,2.41.66L90.9,42.67a1.32,1.32,0,0,1,.43.45V83.43a1.45,1.45,0,0,1-.43.44L53.67,110.19a4.7,4.7,0,0,1-4.82,0L11.61,83.87A1.2,1.2,0,0,1,11.18,83.43ZM56.64,144.3v40.32a11.7,11.7,0,0,0,5.15,9.57L99,220.51a15.48,15.48,0,0,0,8.87,2.72,16.22,16.22,0,0,0,4.42-.62V225a11.67,11.67,0,0,0,5.16,9.56l37.23,26.33a15.85,15.85,0,0,0,17.73,0l37.23-26.33a11.67,11.67,0,0,0,5.16-9.56v-7.83a15.84,15.84,0,0,0,16.88-.55l37.23-26.32a11.72,11.72,0,0,0,5.15-9.57V140.45a11.7,11.7,0,0,0-5.15-9.57l-1.25-.88,1.25-.88a11.69,11.69,0,0,0,5.15-9.56V79.24a11.7,11.7,0,0,0-5.15-9.57L231.7,43.35a15.46,15.46,0,0,0-8.87-2.72,16.22,16.22,0,0,0-4.42.62V38.61a11.16,11.16,0,0,0-1.35-5.33A12.48,12.48,0,0,0,213.25,29L176,2.72a15.81,15.81,0,0,0-17.73,0L121.06,29a11.69,11.69,0,0,0-5.16,9.57V78.93a11.67,11.67,0,0,0,5.16,9.56l15.56,11L120.39,111l-3.63-2.57a15.87,15.87,0,0,0-17.74,0L61.79,134.74A11.69,11.69,0,0,0,56.64,144.3ZM161.15,95.85a4.7,4.7,0,0,1,4.82,0l37.24,26.33a1.64,1.64,0,0,1,.42.41v40.35a1.14,1.14,0,0,1-.43.43L166,189.69a4.39,4.39,0,0,1-2.41.66,4.34,4.34,0,0,1-2.41-.66l-37.24-26.33a1.24,1.24,0,0,1-.43-.44V122.61a1.34,1.34,0,0,1,.43-.44Zm15.58-26.18a11.68,11.68,0,0,0-5.15,9.57v6.92a15.62,15.62,0,0,0-8-2.16,15.36,15.36,0,0,0-8.87,2.72l-8.39,5.93-18.8-13.29a1.24,1.24,0,0,1-.43-.44V38.61a1.34,1.34,0,0,1,.43-.44l37.23-26.32a4.7,4.7,0,0,1,4.82,0L206.8,38.17a1.64,1.64,0,0,1,.42.41v9.53Zm86.17,9.57v40.32a1.14,1.14,0,0,1-.43.43l-37.23,26.33a4.37,4.37,0,0,1-2.41.66,4.3,4.3,0,0,1-2.4-.66l-5.61-4V122.61a11.16,11.16,0,0,0-1.35-5.33,12.48,12.48,0,0,0-3.81-4.24l-26.9-19V79.24s.12-.22.43-.44l37.23-26.32a4.68,4.68,0,0,1,4.81,0L262.47,78.8C262.78,79,262.89,79.19,262.9,79.24Zm-55.11,94.58,1.87-1.33a11.67,11.67,0,0,0,5.16-9.56V156a15.9,15.9,0,0,0,16.88-.55l26.3-18.6,4.47,3.16a1.2,1.2,0,0,1,.43.44v40.32a1.2,1.2,0,0,1-.43.44l-37.23,26.32a4.74,4.74,0,0,1-4.81,0l-5.61-4V184.71a11.15,11.15,0,0,0-1.35-5.32,12.48,12.48,0,0,0-3.81-4.24ZM129,180.67l25.67,18.15a15.85,15.85,0,0,0,17.73,0l25.67-18.15,5.11,3.61a1.48,1.48,0,0,1,.42.41V225a1.14,1.14,0,0,1-.43.43L166,251.8a4.39,4.39,0,0,1-2.41.66,4.34,4.34,0,0,1-2.41-.66l-37.24-26.33a1.24,1.24,0,0,1-.43-.44V184.71a1.36,1.36,0,0,1,.43-.43Zm-61.21,4V144.3a1.14,1.14,0,0,1,.43-.43l37.23-26.33a4.37,4.37,0,0,1,2.41-.66,4.27,4.27,0,0,1,2.4.66l2.54,1.78a11,11,0,0,0-.52,3.29v40.32a11.67,11.67,0,0,0,5.16,9.56l1.88,1.33-1.88,1.33a11.68,11.68,0,0,0-5.16,9.56V210l-2,1.42a4.25,4.25,0,0,1-2.41.67,4.3,4.3,0,0,1-2.4-.66L68.25,185.06A1.2,1.2,0,0,1,67.82,184.62Z"/><path class="cls-5" d="M146.3,92.65,127.51,79.36a1.24,1.24,0,0,1-.43-.44V44.47L161.4,68.73a4.7,4.7,0,0,0,4.82,0L202.1,43.19a1.12,1.12,0,0,1,1.76.92v6.38L176.73,69.67a11.68,11.68,0,0,0-5.15,9.57v6.92a15.62,15.62,0,0,0-8-2.16,15.36,15.36,0,0,0-8.87,2.72Zm68.52,30v19.75l5.61,4a4.3,4.3,0,0,0,2.4.66,4.37,4.37,0,0,0,2.41-.66l34.31-24.26V84.74a1.13,1.13,0,0,0-1.77-.92l-35.88,25.53a4.7,4.7,0,0,1-4.82,0L182.76,85.1V94l26.9,19a12.48,12.48,0,0,1,3.81,4.24A11.16,11.16,0,0,1,214.82,122.61Zm-147,62a1.2,1.2,0,0,0,.43.44l37.24,26.33a4.3,4.3,0,0,0,2.4.66,4.25,4.25,0,0,0,2.41-.67l2-1.42V184.71a11.68,11.68,0,0,1,5.16-9.56l1.88-1.33-1.88-1.33a12.38,12.38,0,0,1-3.62-3.93l-3.54,2.51a4.41,4.41,0,0,1-2.42.66,4.33,4.33,0,0,1-2.4-.66L68.25,144.74a1.06,1.06,0,0,1-.43-.44Zm90-31.89-34.32-24.26v34.45a1.24,1.24,0,0,0,.43.44l37.24,26.33a4.34,4.34,0,0,0,2.41.66,4.39,4.39,0,0,0,2.41-.66l34.3-24.26V128.11a1.12,1.12,0,0,0-1.76-.92l-35.88,25.53a4.7,4.7,0,0,1-4.82,0Zm-33.89,72.74,37.24,26.33a4.34,4.34,0,0,0,2.41.66,4.39,4.39,0,0,0,.91-.09l.13,0a3.58,3.58,0,0,0,.7-.21h0l34.55-24.42a1.23,1.23,0,0,0,.42-.44V186.93a1.19,1.19,0,0,0-.42-.42l-5-3.54h0l-22.41,15.85a15.85,15.85,0,0,1-17.73,0L129,180.67l-5.11,3.61a1.36,1.36,0,0,0-.43.43V225A1.24,1.24,0,0,0,123.92,225.47Zm90.9-40.76v18.86l5.61,4a4.39,4.39,0,0,0,2.4.65,4.32,4.32,0,0,0,.91-.09.5.5,0,0,0,.13,0,3.9,3.9,0,0,0,.7-.2h0l34.55-24.43a1.14,1.14,0,0,0,.43-.43V142.69a1.06,1.06,0,0,0-.43-.44l-4.38-3.1h0l-23,16.3a15.9,15.9,0,0,1-16.88.55v6.93a11.67,11.67,0,0,1-5.16,9.56l-1.87,1.33,1.87,1.33a12.48,12.48,0,0,1,3.81,4.24A11.15,11.15,0,0,1,214.82,184.71Z"/></g></g></svg>