<svg xmlns="http://www.w3.org/2000/svg" xmlns:xlink="http://www.w3.org/1999/xlink" viewBox="0 0 140 140"><defs><style>.cls-1{fill:none;}.cls-2{fill:url(#Degradado_sin_nombre_6);}.cls-3{fill:url(#Degradado_sin_nombre_6-2);}.cls-4{fill:url(#Degradado_sin_nombre_6-3);}.cls-5{opacity:0.19;fill:url(#Degradado_sin_nombre_6-4);}.cls-6{fill:#22233a;}</style><linearGradient id="Degradado_sin_nombre_6" x1="9.83" y1="122.66" x2="20.62" y2="122.66" gradientUnits="userSpaceOnUse"><stop offset="0" stop-color="#f54ea2"/><stop offset="0.99" stop-color="#ff7676"/></linearGradient><linearGradient id="Degradado_sin_nombre_6-2" x1="113.66" y1="18.49" x2="126.74" y2="18.49" xlink:href="#Degradado_sin_nombre_6"/><linearGradient id="Degradado_sin_nombre_6-3" x1="-1925.52" y1="-2735.08" x2="-2032.84" y2="-2735.08" gradientTransform="translate(-1912.16 -2662.22) rotate(180)" xlink:href="#Degradado_sin_nombre_6"/><linearGradient id="Degradado_sin_nombre_6-4" x1="37.86" y1="78.62" x2="113.66" y2="78.62" xlink:href="#Degradado_sin_nombre_6"/></defs><g id="Capa_2" data-name="Capa 2"><g id="Layer_1" data-name="Layer 1"><rect class="cls-1" width="140" height="140"/><path class="cls-2" d="M18.67,120.72h-1.5v-1.51a1.95,1.95,0,0,0-3.89,0v1.51h-1.5a1.94,1.94,0,1,0,0,3.88h1.5v1.51a1.95,1.95,0,0,0,3.89,0V124.6h1.5a1.94,1.94,0,1,0,0-3.88Z"/><path class="cls-3" d="M120.2,14.35a4.14,4.14,0,1,1-4.13,4.14,4.15,4.15,0,0,1,4.13-4.14m0-2.4a6.54,6.54,0,1,0,6.54,6.54A6.54,6.54,0,0,0,120.2,12Z"/><path class="cls-4" d="M12.24,58.23H34.5V63H12.24a2.4,2.4,0,1,1,0-4.8Zm5,14.63a2.4,2.4,0,0,0,2.4,2.4H34.5v-4.8H19.66A2.4,2.4,0,0,0,17.26,72.86ZM9.83,85.09a2.4,2.4,0,0,0,2.41,2.4H34.5v-4.8H12.24A2.4,2.4,0,0,0,9.83,85.09Zm117.93,2.4H105.5v-4.8h22.26a2.4,2.4,0,1,1,0,4.8Zm-5-14.63a2.4,2.4,0,0,0-2.4-2.4H105.5v4.8h14.84A2.4,2.4,0,0,0,122.74,72.86Zm7.43-12.23a2.4,2.4,0,0,0-2.41-2.4H105.5V63h22.26A2.41,2.41,0,0,0,130.17,60.63Z"/><path class="cls-5" d="M106.46,29.2H42.67A4.8,4.8,0,0,0,37.86,34v82a12,12,0,0,0,12,12h51.79a12,12,0,0,0,12-12V36.4A7.2,7.2,0,0,0,106.46,29.2Z"/><path class="cls-6" d="M98.29,21H79.08a9.08,9.08,0,1,0-18.16,0H41.71a12,12,0,0,0-12,12v79.64a12,12,0,0,0,12,12H98.29a12,12,0,0,0,12-12V33A12,12,0,0,0,98.29,21ZM70,16.75A4.28,4.28,0,0,1,74.28,21H65.72A4.28,4.28,0,0,1,70,16.75Zm35.5,95.93a7.21,7.21,0,0,1-7.21,7.2H41.71a7.21,7.21,0,0,1-7.21-7.2V33a7.22,7.22,0,0,1,7.21-7.21h10.8a4.8,4.8,0,0,0,4.8,4.81H82.68a4.8,4.8,0,0,0,4.8-4.81H98.29A7.22,7.22,0,0,1,105.5,33Z"/><rect class="cls-6" x="59.21" y="43.88" width="39.08" height="2.4" rx="1.2"/><rect class="cls-6" x="59.21" y="49.28" width="28.28" height="2.4" rx="1.2"/><path class="cls-6" d="M51.27,44.27a1.23,1.23,0,0,1,.11.51v6a1.27,1.27,0,0,1-1.27,1.27h-6a1.27,1.27,0,0,1-1.27-1.27v-6a1.27,1.27,0,0,1,1.27-1.27h5.54a20.3,20.3,0,0,1,1.8-2,3.56,3.56,0,0,0-1.34-.27h-6a3.55,3.55,0,0,0-3.54,3.54v6a3.55,3.55,0,0,0,3.54,3.54h6a3.55,3.55,0,0,0,3.54-3.54v-6a3.56,3.56,0,0,0-.79-2.23A20.76,20.76,0,0,0,51.27,44.27Z"/><path class="cls-6" d="M47.73,50.34A.89.89,0,0,1,47,50l-2.65-3.47a.86.86,0,0,1,.16-1.21.87.87,0,0,1,1.22.16l1.81,2.37a21.23,21.23,0,0,1,6.63-7.34A.87.87,0,0,1,55.15,42a20.13,20.13,0,0,0-6.63,7.85.86.86,0,0,1-.68.51Z"/><rect class="cls-6" x="59.21" y="69" width="39.08" height="2.4" rx="1.2"/><rect class="cls-6" x="59.21" y="74.4" width="28.28" height="2.4" rx="1.2"/><path class="cls-6" d="M51.27,69.39a1.23,1.23,0,0,1,.11.51v6a1.27,1.27,0,0,1-1.27,1.27h-6a1.27,1.27,0,0,1-1.27-1.27v-6a1.27,1.27,0,0,1,1.27-1.27h5.54a20.3,20.3,0,0,1,1.8-2,3.56,3.56,0,0,0-1.34-.27h-6a3.55,3.55,0,0,0-3.54,3.54v6a3.55,3.55,0,0,0,3.54,3.54h6a3.55,3.55,0,0,0,3.54-3.54v-6a3.56,3.56,0,0,0-.79-2.23A20.76,20.76,0,0,0,51.27,69.39Z"/><path class="cls-6" d="M47.73,75.46a.89.89,0,0,1-.69-.34l-2.65-3.47a.86.86,0,0,1,.16-1.21.87.87,0,0,1,1.22.16L47.58,73a21.23,21.23,0,0,1,6.63-7.34.87.87,0,0,1,.94,1.46,20.13,20.13,0,0,0-6.63,7.85.86.86,0,0,1-.68.51Z"/><path class="cls-6" d="M51.27,94.51a1.26,1.26,0,0,1,.11.51v6a1.27,1.27,0,0,1-1.27,1.27h-6A1.27,1.27,0,0,1,42.84,101V95a1.27,1.27,0,0,1,1.27-1.27h5.54a20.3,20.3,0,0,1,1.8-2,3.56,3.56,0,0,0-1.34-.27h-6A3.55,3.55,0,0,0,40.57,95v6a3.55,3.55,0,0,0,3.54,3.54h6A3.55,3.55,0,0,0,53.65,101V95a3.56,3.56,0,0,0-.79-2.23A20.76,20.76,0,0,0,51.27,94.51Z"/><rect class="cls-6" x="59.21" y="94.12" width="39.08" height="2.4" rx="1.2"/><rect class="cls-6" x="59.21" y="99.52" width="28.28" height="2.4" rx="1.2"/><path class="cls-6" d="M47.73,100.58a.89.89,0,0,1-.69-.34l-2.65-3.47a.86.86,0,0,1,.16-1.21.87.87,0,0,1,1.22.16l1.81,2.37a21.23,21.23,0,0,1,6.63-7.34.87.87,0,0,1,.94,1.46,20.2,20.2,0,0,0-6.63,7.85.86.86,0,0,1-.68.51Z"/></g></g></svg>