<svg version="1.1" id="Layer_1" xmlns="http://www.w3.org/2000/svg" xmlns:xlink="http://www.w3.org/1999/xlink" x="0px" y="0px"
     viewBox="0 0 512 512" style="enable-background:new 0 0 512 512;" xml:space="preserve">
<style type="text/css">
	.st0{fill:#555555;}
	.st1{fill:#F15642;}
	.st2{fill:#FFFFFF;}
</style>
<path class="st0" d="M352,0H128c-17.6,0-32,14.4-32,32v448c0,17.6,14.4,32,32,32h320c17.6,0,32-14.4,32-32V128L352,0z M455.8,121.7
	h-75c-12.7,0-23.1-10.3-23.1-22.9V24.1L455.8,121.7z M470,132.1V480c0,12.1-9.9,22-22,22H128c-12.1,0-22-9.9-22-22V32
	c0-12.1,9.9-22,22-22h219.7v88.7c0,18.1,14.9,32.9,33.1,32.9h88.8L470,132.1z"/>
<path class="st1" d="M416,416c0,8.8-7.2,16-16,16H48c-8.8,0-16-7.2-16-16V256c0-8.8,7.2-16,16-16h352c8.8,0,16,7.2,16,16V416z"/>
<g>
	<path class="st2" d="M161.6,312.4c0,11.5-3.9,20.3-11.7,26.5c-7.8,6.2-19,9.3-33.6,9.3h-13.3v44.6H89.7V279.3h29.4
		C147.4,279.3,161.6,290.3,161.6,312.4z M102.9,336.8h11.9c11.7,0,20.1-1.9,25.4-5.7c5.2-3.8,7.8-9.8,7.8-18.1
		c0-7.5-2.5-13.1-7.4-16.7c-4.9-3.7-12.6-5.5-22.9-5.5h-14.7V336.8z"/>
	<path class="st2" d="M275.8,334.9c0,18.7-5.1,33-15.2,42.9c-10.2,9.9-24.8,14.8-43.8,14.8h-31.4V279.3h34.7
		c17.6,0,31.3,4.9,41.1,14.7S275.8,317.4,275.8,334.9z M261.8,335.4c0-14.8-3.7-25.9-11.1-33.4c-7.4-7.5-18.4-11.2-33.1-11.2h-19.1
		v90.6h16c15.7,0,27.5-3.9,35.4-11.6C257.9,362,261.8,350.5,261.8,335.4z"/>
	<path class="st2" d="M314.3,392.7h-13.2V279.3h63.2V291h-50v41.5h47v11.7h-47V392.7z"/>
</g>
</svg>
